<?xml version="1.0" encoding="utf-8"?>
<!-- Generator: Adobe Illustrator 12.0.0, SVG Export Plug-In . SVG Version: 6.00 Build 51448)  -->
<!DOCTYPE svg PUBLIC "-//W3C//DTD SVG 1.1//EN" "http://www.w3.org/Graphics/SVG/1.1/DTD/svg11.dtd" [
	<!ENTITY ns_svg "http://www.w3.org/2000/svg">
	<!ENTITY ns_xlink "http://www.w3.org/1999/xlink">
]>
<svg  version="1.1" id="Layer_1" xmlns="&ns_svg;" xmlns:xlink="&ns_xlink;" width="11.784" height="15.132"
	 viewBox="0 0 11.784 15.132" overflow="visible" enable-background="new 0 0 11.784 15.132" xml:space="preserve">
<symbol  id="New_Symbol_25" viewBox="-5.892 43.434 11.784 15.132">
	<path fill="#010101" d="M5.044,48.479c-0.015,0.178-0.06,0.361-0.12,0.551c-0.026,3.203,0.969,4.529,0.969,4.529
		s-1.496-0.036-3.225-0.988c-0.037,0.053-0.072,0.104-0.109,0.156c0.053,1.299,0.305,2.596,0.67,3.555
		c-0.216-0.118-1.131-0.506-2.054-1.196c-0.475,1.134-0.622,2.306-0.058,3.48c-4.392-3.147-7.008-6.661-7.009-9.485
		c-0.002-2.199,0.548-5.646,5.868-5.646c3.133,0,4.729,1.201,5.026,3.529l0.069-0.07c-0.014,0.105-0.021,0.201-0.032,0.303
		C5.074,47.594,5.081,48.017,5.044,48.479z M2.429,45.979c-0.343-0.598-0.515-0.773-2.72-0.836
		c-2.205-0.063-2.614,0.417-3.021,1.167c-1.16,2.14,0.305,3.489,0.221,3.333c-0.083-0.156-0.528-1.532,1.596-2.656
		c-1.043,1.3,0.854,2.854,1.557,3.573c0-1.844,0.748-3.573,0.748-3.573s1.211,0.711,2.083,3.271
		C3.351,48.268,3.43,47.721,2.429,45.979z"/>
</symbol>
<use xlink:href="#New_Symbol_25"  width="11.784" height="15.132" x="-5.892" y="43.434" transform="matrix(1 0 0 -1 5.8916 58.5654)"/>
</svg>
