<?xml version="1.0" encoding="utf-8"?>
<!-- Generator: Adobe Illustrator 12.0.0, SVG Export Plug-In . SVG Version: 6.00 Build 51448)  -->
<!DOCTYPE svg PUBLIC "-//W3C//DTD SVG 1.1//EN" "http://www.w3.org/Graphics/SVG/1.1/DTD/svg11.dtd" [
	<!ENTITY ns_svg "http://www.w3.org/2000/svg">
	<!ENTITY ns_xlink "http://www.w3.org/1999/xlink">
]>
<svg  version="1.1" id="Layer_1" xmlns="&ns_svg;" xmlns:xlink="&ns_xlink;" width="20" height="20" viewBox="0 0 20 20"
	 overflow="visible" enable-background="new 0 0 20 20" xml:space="preserve">
<title>hour-glass</title>
<desc>Created with Sketch.</desc>
<g id="Page-1">
	<g id="hour-glass">
		<path id="Combined-Shape" fill="#0067B1" d="M17,18c0-2.793-1.635-5.203-4-6.326V8.326C15.365,7.203,17,4.792,17,2h2V0H1v2h2
			c0,2.792,1.635,5.203,4,6.326v3.348C4.635,12.797,3,15.207,3,18H1v2h18v-2H17z M15,2c0,2.419-1.718,4.437-4,4.9v1.064V10H9V7.964
			V6.9C6.718,6.437,5,4.419,5,2H15z"/>
	</g>
</g>
</svg>
