<?xml version="1.0" encoding="utf-8"?>
<!-- Generator: Adobe Illustrator 12.0.0, SVG Export Plug-In . SVG Version: 6.00 Build 51448)  -->
<!DOCTYPE svg PUBLIC "-//W3C//DTD SVG 1.1//EN" "http://www.w3.org/Graphics/SVG/1.1/DTD/svg11.dtd" [
	<!ENTITY ns_svg "http://www.w3.org/2000/svg">
	<!ENTITY ns_xlink "http://www.w3.org/1999/xlink">
]>
<svg  version="1.1" id="Layer_1" xmlns="&ns_svg;" xmlns:xlink="&ns_xlink;" width="21.566" height="23.793"
	 viewBox="0 0 21.566 23.793" overflow="visible" enable-background="new 0 0 21.566 23.793" xml:space="preserve">
<g>
	<path fill="none" d="M17.298,15.258h-0.844H16.35v0.947h-0.476c-0.949,0-1.896,0.476-1.896,1.424c0,0.304,0.104,0.553,0.266,0.759
		c0.348,0.438,0.984,0.663,1.631,0.663h0.949h0.948c0,0,0.474,0,0.474,0.475l0,0c0,0.319-0.213,0.422-0.354,0.456
		C17.826,19.999,17.773,20,17.773,20h-0.948h-2.371v0.324v0.625h1.896v0.947h0.946V20.95h0.477c0.947,0,1.422-0.475,1.422-1.423
		c0-0.715-0.271-1.159-0.808-1.336c-0.177-0.058-0.382-0.087-0.614-0.087h-1.319H16.35h-0.476c-0.475,0-0.949-0.475-0.949-0.475
		c0-0.473,0.476-0.473,0.949-0.473h0.476h0.104h1.935h0.333v-0.949h-0.333h-1.091V15.258z"/>
	<path fill="none" d="M12.581,15.485v-1.936h1.937v0.369c0.594-0.299,1.248-0.487,1.938-0.539V5.807H2.904v12.582h8.713
		c0.04-1.079,0.419-2.081,1.036-2.903L12.581,15.485L12.581,15.485z M12.581,8.711h1.937v2.904h-1.937V8.711z M6.775,15.485H4.841
		v-1.936h1.936L6.775,15.485L6.775,15.485z M6.775,11.615H4.841V8.711h1.936L6.775,11.615L6.775,11.615z M10.647,15.485H8.711
		v-1.936h1.938L10.647,15.485L10.647,15.485z M10.647,11.615H8.711V8.711h1.938L10.647,11.615L10.647,11.615z"/>
	<g>
		<path fill="none" d="M18.388,18.191v-1.036h0.333v-0.949h-0.333h-1.091v-0.947h-0.843h-0.001h-0.103v0.947h-0.476
			c-0.949,0-1.896,0.476-1.896,1.424c0,0.303,0.104,0.552,0.266,0.759c0.348,0.438,0.984,0.663,1.63,0.663h0.949h0.948
			c0,0,0.474,0,0.474,0.474c-0.073,0.175-0.183,0.33-0.354,0.456c-0.067,0.018-0.12,0.02-0.12,0.02h-0.948h-2.371h-0.001v0.324
			h0.002v0.625h1.896v0.947h0.946V20.95h0.477c0.947,0,1.422-0.475,1.422-1.423C19.196,18.812,18.926,18.368,18.388,18.191z
			 M17.893,19.982c0.171-0.126,0.281-0.282,0.354-0.456C18.247,19.844,18.034,19.948,17.893,19.982z M18.387,18.19
			c-0.177-0.057-0.382-0.087-0.614-0.087h-1.318h-0.001h-0.001h-0.102h-0.476c-0.474,0-0.949-0.474-0.949-0.474
			c0-0.475,0.475-0.475,0.949-0.475h0.476h0.102v-0.001h1.935V18.19z"/>
		<path fill="none" d="M12.653,15.485c0.491-0.656,1.128-1.195,1.863-1.566C13.781,14.29,13.143,14.829,12.653,15.485z"/>
		<path fill="none" d="M11.617,18.387L11.617,18.387c0.041-1.079,0.42-2.08,1.037-2.902h-0.001h-0.072v-1.936h1.936v0.369v1.566
			h0.001v-1.566c0.594-0.299,1.248-0.488,1.937-0.539V5.807H2.904v12.581L11.617,18.387L11.617,18.387z M12.581,8.711h1.937v2.904
			h-1.937V8.711z M6.776,15.485H4.841v-1.936h1.936V15.485z M6.776,11.615H4.841V8.711h1.936V11.615z M10.648,15.485H8.711v-1.936
			h1.938V15.485z M10.648,11.615H8.711V8.711h1.938V11.615z"/>
		<path fill="#24282C" d="M17.893,19.982c0.141-0.034,0.354-0.138,0.354-0.456C18.175,19.7,18.064,19.856,17.893,19.982z"/>
		<path fill="#0067B1" d="M5.674,9.948h1.936V7.044H5.674V9.948z M9.544,9.948h1.938V7.044H9.544V9.948z M5.674,13.818h1.936v-1.936
			H5.674V13.818z M9.544,13.818h1.938v-1.936H9.544V13.818z M15.349,12.251v-0.369h-1.936v1.936h0.072
			C13.976,13.162,14.614,12.623,15.349,12.251z M15.35,7.044h-1.937v2.904h1.937V7.044z M19.221,11.958V2.205
			c0-0.967,0-1.936-1.935-1.936h-1.938v-1.936h-1.937v1.936H7.608v-1.936H5.674v1.936H3.737c-1.934,0-2.904,0.969-2.904,1.936
			v14.517c0,0.968,0.971,1.938,2.904,1.938h9.019c0-0.001,0-0.001-0.001-0.002h0.002c0.732,2.006,2.667,3.469,4.902,3.469
			c2.845,0,4.741-2.371,4.741-5.215C22.399,14.626,21.176,12.651,19.221,11.958z M13.486,13.818L13.486,13.818
			c-0.616,0.822-0.995,1.823-1.035,2.902H12.45v0.001H3.737V4.14h13.55v7.572c-0.688,0.051-1.343,0.24-1.937,0.539v1.566h-0.001
			v-1.566C14.614,12.623,13.977,13.162,13.486,13.818z M18.607,19.283h-0.477v0.947h-0.946v-0.947h-1.896v-0.625h-0.002v-0.324
			h0.001h2.371h0.948c0,0,0.053-0.002,0.12-0.02c0.171-0.126,0.28-0.281,0.354-0.456c0-0.474-0.474-0.474-0.474-0.474h-0.948h-0.949
			c-0.646,0-1.282-0.225-1.63-0.663c-0.162-0.207-0.266-0.456-0.266-0.759c-0.001-0.948,0.946-1.424,1.896-1.424h0.476v-0.947h0.103
			h0.001h0.843v0.947h1.091h0.333v0.949h-0.333v1.036c0.537,0.177,0.808,0.621,0.808,1.336
			C20.029,18.808,19.554,19.283,18.607,19.283z M17.286,15.488h-0.102h-0.476c-0.475,0-0.949,0-0.949,0.475
			c0,0,0.476,0.474,0.949,0.474h0.476h0.102h0.001h0.001h1.318c0.232,0,0.438,0.03,0.614,0.087v-1.036L17.286,15.488L17.286,15.488z
			"/>
	</g>
</g>
</svg>
