<?xml version="1.0" encoding="utf-8"?>
<!-- Generator: Adobe Illustrator 12.0.0, SVG Export Plug-In . SVG Version: 6.00 Build 51448)  -->
<!DOCTYPE svg PUBLIC "-//W3C//DTD SVG 1.1//EN" "http://www.w3.org/Graphics/SVG/1.1/DTD/svg11.dtd" [
	<!ENTITY ns_svg "http://www.w3.org/2000/svg">
	<!ENTITY ns_xlink "http://www.w3.org/1999/xlink">
]>
<svg  version="1.1" id="Layer_1" xmlns="&ns_svg;" xmlns:xlink="&ns_xlink;" width="20" height="20" viewBox="0 0 20 20"
	 overflow="visible" enable-background="new 0 0 20 20" xml:space="preserve">
<title>phone</title>
<desc>Created with Sketch.</desc>
<g id="Page-1">
	<g id="phone">
		<path id="Combined-Shape" fill="#0067B1" d="M11.174,16.826c-3.599-1.518-6.482-4.4-8-8l2.12-2.12C5.686,6.314,6,5.557,6,5.009
			V0.991C6,0.451,5.552,0,5,0H1.651H1.002C0.449,0,0,0.446,0,1.001c0,0,0,0.976,0,1.999c0,9.389,7.611,17,17,17
			c1.023,0,1.999,0,1.999,0C19.552,20,20,19.557,20,18.998v-0.649V15c0-0.553-0.451-1-0.99-1h-4.02
			c-0.547,0-1.305,0.314-1.696,0.706L11.174,16.826z"/>
	</g>
</g>
</svg>
