<?xml version="1.0" encoding="utf-8"?>
<!-- Generator: Adobe Illustrator 12.0.0, SVG Export Plug-In . SVG Version: 6.00 Build 51448)  -->
<!DOCTYPE svg PUBLIC "-//W3C//DTD SVG 1.1//EN" "http://www.w3.org/Graphics/SVG/1.1/DTD/svg11.dtd" [
	<!ENTITY ns_svg "http://www.w3.org/2000/svg">
	<!ENTITY ns_xlink "http://www.w3.org/1999/xlink">
]>
<svg  version="1.1" id="Layer_1" xmlns="&ns_svg;" xmlns:xlink="&ns_xlink;" width="16" height="14" viewBox="0 0 16 14"
	 overflow="visible" enable-background="new 0 0 16 14" xml:space="preserve">
<g>
	<path fill="#0067B1" d="M15,5h-2V3.161L9.875,0H3v5H1L0,6v5h3v2v1h1h8h1v-1v-2h3V6L15,5z M2,7H1V6h1V7z M12,10v1v2H4v-2v-1V8h8V10z
		 M12,5H4V1h5v3h3V5z M14.844,9.75h-0.938v-1.5h0.938V9.75z"/>
	<rect x="5" y="9" fill="#0067B1" width="6" height="1"/>
	<rect x="5" y="11" fill="#0067B1" width="6" height="1"/>
</g>
</svg>
