<?xml version="1.0" encoding="utf-8"?>
<!-- Generator: Adobe Illustrator 12.0.0, SVG Export Plug-In . SVG Version: 6.00 Build 51448)  -->
<!DOCTYPE svg PUBLIC "-//W3C//DTD SVG 1.1//EN" "http://www.w3.org/Graphics/SVG/1.1/DTD/svg11.dtd" [
	<!ENTITY ns_svg "http://www.w3.org/2000/svg">
	<!ENTITY ns_xlink "http://www.w3.org/1999/xlink">
]>
<svg  version="1.1" id="Layer_1" xmlns="&ns_svg;" xmlns:xlink="&ns_xlink;" width="16" height="11" viewBox="0 0 16 11"
	 overflow="visible" enable-background="new 0 0 16 11" xml:space="preserve">
<g>
	<path fill="#0067B1" d="M12,9.5c0,0.828,0.673,1.5,1.5,1.5S15,10.328,15,9.5C15,8.674,14.327,8,13.5,8S12,8.674,12,9.5z M13,9.5
		C13,9.224,13.225,9,13.5,9S14,9.224,14,9.5c0,0.277-0.225,0.5-0.5,0.5S13,9.777,13,9.5z"/>
	<path fill="#0067B1" d="M1,9.5C1,10.328,1.673,11,2.5,11S4,10.328,4,9.5C4,8.674,3.327,8,2.5,8S1,8.674,1,9.5z M2,9.5
		C2,9.224,2.224,9,2.5,9S3,9.224,3,9.5C3,9.777,2.776,10,2.5,10S2,9.777,2,9.5z"/>
	<path fill="#0067B1" d="M0,0v9h10c0,0,4,0,5,0c1.001,0,1-1,1-1s0-1,0-2c0-1.002-2-2-2-2l-2-3h-2L9,0H0z M10,2h2l1,2h-3V2z"/>
</g>
</svg>
