<?xml version="1.0" encoding="utf-8"?>
<!-- Generator: Adobe Illustrator 12.0.0, SVG Export Plug-In  -->
<!DOCTYPE svg PUBLIC "-//W3C//DTD SVG 1.1//EN" "http://www.w3.org/Graphics/SVG/1.1/DTD/svg11.dtd" [
	<!ENTITY ns_flows "http://ns.adobe.com/Flows/1.0/">
	<!ENTITY ns_svg "http://www.w3.org/2000/svg">
	<!ENTITY ns_xlink "http://www.w3.org/1999/xlink">
]>
<svg  version="1.1" xmlns="&ns_svg;" xmlns:xlink="&ns_xlink;" xmlns:a="http://ns.adobe.com/AdobeSVGViewerExtensions/3.0/"
	 width="227" height="67" viewBox="-0.332 -0.845 227 67" enable-background="new -0.332 -0.845 227 67" xml:space="preserve">
<defs>
</defs>
<path d="M82.459,17.838l-3.6-0.053c0,0-1.329-0.004-2.048,3.367l-4.678,21.998c0,0-0.522,1.799-0.245,2.563
	c0,0-0.044,0.854,1.708,0.807l2.799,0.004c0,0,1.425,0.051,1.902-2.557l5.11-23.662C83.409,20.305,83.934,17.889,82.459,17.838z"/>
<path d="M82.466,17.382l-3.604-0.058c-0.179,0-1.729,0.099-2.5,3.729l-4.681,22.005l0.009-0.037
	c-0.095,0.33-0.547,1.992-0.229,2.854l-0.028-0.186c-0.008,0.064-0.01,0.425,0.314,0.758c0.368,0.378,0.992,0.559,1.864,0.537
	c-0.015,0,2.784,0.001,2.784,0.001c0.055,0,1.812,0.029,2.356-2.935c-0.003,0.017,5.105-23.645,5.105-23.645
	c0.035-0.171,0.337-1.676-0.309-2.502C83.297,17.574,82.926,17.395,82.466,17.382z M82.958,20.211l-5.108,23.656
	c-0.396,2.152-1.406,2.197-1.446,2.197c-0.007,0-2.806,0-2.806,0c-0.98,0.019-1.232-0.258-1.245-0.354c0,0,0,0.006,0,0.033
	l0.004-0.096l-0.032-0.096c-0.158-0.428,0.054-1.586,0.252-2.274l0.004-0.011l0.005-0.024l4.682-22
	c0.586-2.772,1.584-2.994,1.59-2.994c-0.006,0,3.601,0.052,3.601,0.052c0.212,0.007,0.313,0.094,0.368,0.17
	C83.127,18.856,83.042,19.807,82.958,20.211z"/>
<path d="M223.803,14.104c-0.617-1.051-2.446-3.27-6.838-3.179l-0.234-0.069l-24.532-0.03l-17.358-0.149
	c-0.234,0-0.813,0.006-1.616,0.122l-20.999-0.031v0.017l-10.752-0.017l-0.207,0.022c-0.305,0.036-1.88,0.275-3.615,1.545
	c-0.646-0.877-1.484-1.289-2.219-1.479c0.427-2.109,0.854-4.225,0.854-4.225l-0.042,0.173c0.394-1.556,0.237-3.741-1.372-5.19
	c-0.618-0.551-2.307-1.693-4.956-0.85c-0.119,0.031-3.168,0.813-3.168,0.813s-2.57,0.717-3.09,0.869
	c-0.344,0.049-0.674,0.134-1.001,0.271c-2.18,0.952-2.962,3.435-3.487,5.966l0.007-0.028l-0.491,2.265
	c-0.369-0.084-0.756-0.135-1.156-0.146l-4.596-0.056c0,0,0.117,0.031,0.145,0.031c-1.606-0.082-3.729,0.586-5.307,2.365
	c-0.7-1.25-1.827-1.994-3.044-2.238l-0.349-0.07c0,0-5.824-0.051-6.388-0.057c-0.798-0.106-1.928-0.088-3.118,0.574
	c-0.458,0.251-0.968,0.623-1.439,1.184c-0.42-0.397-0.897-0.741-1.44-1.033l-0.095-0.051l-0.094-0.043
	c-0.999-0.467-2.58-0.669-4.687-0.6c-0.041,0-11.036-0.063-11.377-0.063c-1.141-0.107-4.71-0.201-7.396,2.213
	c-0.832-1.269-2.637-2.496-6.518-2.281c-1.421,0-19.037,0.012-19.763,0.012c-0.105-0.01-0.214-0.019-0.32-0.029
	c0.14-0.197,0.265-0.412,0.371-0.638l0.082-0.184l0.07-0.189c0.068-0.201,0.68-2.028,0.847-3.87
	c0.095-1.105-0.069-2.074-0.498-2.875l-0.491-0.914l-0.891-0.539c-0.818-0.501-1.658-0.576-2.438-0.622l-0.109-0.005L23.125,0.864
	l-0.151,0.018c-2.887,0.241-8.597,2.371-11.661,8.828l-0.033,0.075L11.25,9.86c-0.287,0.666-2.796,6.68-3.207,10.974l-0.116,1.191
	c-0.801,0.481-1.464,1.203-1.871,2.104l-0.201,0.428c0,0-0.511,2.799-0.57,3.155c-0.086,0.329-0.13,0.663-0.13,1.003
	c0,0.724,0.189,1.453,0.573,2.104c0.596,0.996,1.85,2.187,4.474,2.187h0.774l0.605,1.466c0.907,2.207,2.119,5.187,3.099,7.586
	c-4.101,0.057-8.863,0.126-8.938,0.126c-2.051-0.063-3.878,1.198-4.46,3.162l0.065-0.204c-0.15,0.42-0.563,1.648-0.752,2.914
	l-0.008-0.006c0,0-1.781,6.195,8.143,9.623c0,0,15.73,4.903,21.517,6.657c0.555,0.294,1.237,0.526,2.072,0.601
	c0.379,0.084,0.849,0.076,1.365,0.02c1.608-0.021,4.711-0.063,5.166-0.072c0.814,0.084,1.659-0.051,2.414-0.404
	c0.975-0.469,2.262-1.514,2.876-3.844l0.029-0.104c0,0,0.894-4.419,1.335-6.593l169.124,0.245c0,0,2.107-1.239,4.108-4.195
	c0.51-0.628,0.979-1.36,1.392-2.214c0.082-0.174,1.972-4.151,2.539-9.704c0.025-0.157,2.016-12.392,2.031-12.517
	c0.075-0.385,0.385-2.052,0.501-3.979c0.034-0.493,0.044-0.961,0.046-1.417C225.249,17.553,224.771,15.568,223.803,14.104z
	 M169.939,15.983c2.426-1.586,4.865-1.515,4.865-1.515l20.112,0.173c0.235,0.029,0.497,0.07,0.497,0.07
	c0.075,0.057,0.134,0.144,0.177,0.251c0.248,0.573,0.082,1.696,0.082,1.696c-0.17,2.298-0.907,2.111-0.907,2.111l-1.092-0.015
	l-10.858-0.119c-3.629-0.107-4.078,0.892-4.078,0.892c-1.475,1.395-2.167,4.195-2.167,4.195l-12.045-0.02
	C166.237,18.636,169.939,15.983,169.939,15.983z M161.693,29.346c0.145-1.807,0.689-1.781,0.689-1.781l12.782,0.019
	c0.995,0.025,0.854,0.955,0.854,0.955l-0.337,2.224c-0.095,1.141-0.926,0.951-0.926,0.951l-12.878-0.119
	C161.333,31.405,161.693,29.346,161.693,29.346z M14.742,11.341c2.946-6.212,8.546-6.678,8.546-6.678L38.59,4.588
	c0.601,0.037,0.683,0.08,0.683,0.08c0.11,0.205,0.06,0.744,0.06,0.744c-0.125,1.441-0.658,2.973-0.658,2.973
	c-0.173,0.385-0.822,0.328-0.822,0.328l-14.835-0.06c-0.797,0.569-0.041,1.937-0.041,1.937l5.855,10.568L11.817,21.2
	C12.184,17.357,14.742,11.341,14.742,11.341z M10.209,29.213c-1.564,0-1.23-0.618-1.23-0.618l0.522-2.897
	c0.242-0.517,0.715-0.517,0.715-0.517l24.331-0.253c0.08,0,0.152,0.014,0.219,0.026c0.736,0.147,0.539,1.069,0.539,1.069
	l-0.143,1.09c-0.147,1.897-1.045,1.993-1.045,1.993h-0.202L10.209,29.213z M19.872,49.924l-13.6,0.168L4.79,50.028
	c-0.57-0.033-0.508-0.76-0.508-0.76c0.003-1.075,0.637-2.846,0.637-2.846c0.16-0.533,0.822-0.443,0.822-0.443l13.979-0.205
	c0.602-0.092,0.16-0.973,0.16-0.973c-0.381-1.018-4.791-11.777-4.791-11.777l17.139,0.031
	C30.621,49.749,19.872,49.924,19.872,49.924z M85.081,47.676c-2.228,2.697-4.608,2.131-4.608,2.131l-35.903-0.102
	c-1,0-0.713-0.719-0.713-0.719c0.047-0.516,0.287-1.133,0.287-1.133l11.138-25.879c1.045-1.85,0.95-3.277,0.95-3.277
	c0.048-0.756-0.995-0.943-0.995-0.943l-4.696-0.008c-1.943-0.05-1.855,1.229-1.855,1.229l-8.212,40.683
	c-0.479,1.809-1.331,1.424-1.331,1.424l-6.351,0.088c-1.901-0.104-1.14-2-1.14-2l8.666-42.438c0.352-2.848,1.359-2.271,1.359-2.271
	l20.253-0.021c2.895-0.186,3.272,0.625,3.272,0.625c0.898,2.796-1.004,6.636-1.004,6.636l-9.9,22.939
	c-0.76,1.997,0.568,1.854,0.568,1.854l8.44-0.032c-0.283-1.146,0.05-3.654,0.05-3.654c0.195-2.041,4.014-19.536,4.014-19.536
	c0.479-3.369,2.954-6.921,2.954-6.921c1.758-2.321,5.216-1.842,5.216-1.842l11.573,0.064c2.374-0.088,3.086,0.24,3.086,0.24
	c0.79,0.428,1.272,1.13,1.571,1.914c0.728,1.943,0.269,4.397,0.269,4.397c-0.146,1.848-4.395,21.052-4.395,21.052
	C86.948,44.797,86.029,46.53,85.081,47.676z M107.746,29.282c-0.73-0.119-0.087-1.965-0.087-1.965
	c0.595-1.565,0.191-1.998,0.191-1.998c-0.31-0.233-0.832,0.715-0.832,0.715l-9.515,20.711c-1.524,3.793-2.567,3.131-2.567,3.131
	l-5.452,0.037c-1.232-0.004-0.664-1.518-0.664-1.518l6.923-32.102c0.482-2.275,1.902-1.752,1.902-1.752l6.344,0.057
	c0.961,0.195,0.623,2.279,0.623,2.279l-3.864,17.813c-0.167,0.759-0.075,0.676-0.075,0.676c0.145,0.14,0.402-0.471,0.402-0.471
	l6.737-14.318c0.825-1.871,2.474-4.523,2.474-4.523c1.041-1.588,2.61-1.537,2.61-1.537l4.573,0.053c0.157,0,0.297,0.025,0.416,0.057
	c1.14,0.33,0.885,1.916,0.885,1.916c0.045,1.446-1.889,9.93-1.889,9.93c-0.666,3.44-1.469,2.816-1.469,2.816h-0.686L107.746,29.282z
	 M149.434,49.743l-9.63,0.092v0.057l-4.806-0.009l-2.007,0.024l-0.142-0.031l-16.092-0.02c-2.47-0.574-1.319-5.879-1.319-5.879
	l7.448-34.52c0.76-3.701,1.474-3.27,1.474-3.27l3.368-0.949l3.197-0.814c2.211-0.819,1.638,1.455,1.638,1.455l-1.727,8.566
	l3.129,0.039c0.698,0,0.647,0.12,0.647,0.12c0.075,0.51-0.104,1.587-0.104,1.587c-0.191,1.991-1.298,1.625-1.298,1.625l-3.181-0.05
	l-5.535,25.747c-0.434,3.275,1.037,3.175,1.037,3.175l7.274-0.058v-0.02l11.034-0.107c1.799-0.025,2.12-2.306,2.12-2.306
	l1.405-8.854c0.321-1.964-0.726-1.737-0.726-1.737l-10.689,0.108c-0.438,0-0.757-0.126-0.757-0.126
	c-0.507-0.439-0.188-2.438-0.188-2.438c0.484-5.059,2.009-11.125,2.009-11.125c1.494-5.121,4.657-5.469,4.657-5.469l16.573,0.031
	c0.818,0.033,0.436,1.419,0.436,1.419c-0.158,1.964-0.857,1.839-0.857,1.839l-10.369-0.051c-0.885,0.063-1.584,1.771-1.584,1.771
	l-1.34,8.725c-0.51,2.469,0.691,2.021,0.691,2.021l10.753-0.044c1.515,0.063,0.942,2.212,0.942,2.212l-1.721,10.245
	C153.415,49.995,149.434,49.743,149.434,49.743z M192.09,49.087c-0.156,0.505-0.568,0.422-0.568,0.422l-0.857,0.007l-18.971,0.035
	c-1.963-0.066-2.496-0.355-2.496-0.355c-5.278-1.872-4.947-13.668-4.947-13.668l12.256,0.101c-0.357,1.282-0.602,6.354-0.602,6.354
	c-0.102,3.628,2.265,3.57,2.265,3.57l11.418-0.031l2.065-0.006c0,0-0.648-0.07,0.031,0c0.679,0.063,0.772,0.599,0.772,0.599
	C192.489,47.821,192.09,49.087,192.09,49.087z M220.965,24.872l-2.061,12.662c-0.481,5.027-2.195,8.587-2.195,8.587
	c-1.805,3.741-4.893,3.405-4.893,3.405l-13.797-0.066c-2.753,0.044-3.369-0.809-3.369-0.809c-1.89-1.806-1.222-6.789-1.222-6.789
	l3.157-19.248c0.671-4.173,2.758-6.307,2.758-6.307c1.568-1.893,5.459-1.414,5.459-1.414l4.836-0.04l6.123-0.04
	c3.982-0.562,4.787,1.24,4.787,1.24C222.301,18.385,220.965,24.872,220.965,24.872z"/>
<path d="M224.2,13.87c-0.621-1.059-2.564-3.502-7.247-3.41l0.136,0.016l-0.234-0.057l-0.059-0.02h-0.064l-24.532-0.035
	c0.003,0-17.353-0.148-17.353-0.148c-0.284-0.006-0.883,0.01-1.686,0.125l0.063-0.008l-20.999-0.031h-0.436l-0.025,0.441l0.461-0.42
	l-10.752-0.016h-0.023h-0.026l-0.211,0.025c-0.311,0.035-1.984,0.274-3.834,1.633l0.647,0.094c-0.615-0.832-1.449-1.383-2.483-1.65
	l0.337,0.541l0.856-4.227l-0.9-0.195l-0.041,0.177l0.895,0.214c0.428-1.693,0.256-4.057-1.513-5.645
	c-0.66-0.592-2.509-1.871-5.395-0.951l0.022-0.01l-3.169,0.816c-0.012,0-3.103,0.863-3.103,0.863l0.051-0.007
	c-0.432,0.069-0.781,0.165-1.112,0.308c-2.365,1.034-3.2,3.643-3.754,6.302l0.9,0.188l0.007-0.03l-0.901-0.196l-0.486,2.261
	l0.556-0.348c-0.413-0.096-0.834-0.149-1.253-0.153l-4.599-0.059l-0.095,0.917l0.132,0.023l0.12-0.908
	c-1.588-0.08-3.912,0.536-5.67,2.52l0.746,0.08c-0.718-1.29-1.943-2.185-3.356-2.466l-0.347-0.072l-0.043-0.005h-0.047l-6.387-0.057
	l0.059,0.002c-1.189-0.167-2.365,0.049-3.404,0.627c-0.595,0.32-1.117,0.756-1.564,1.285l0.664-0.039
	c-0.457-0.426-0.974-0.791-1.537-1.1l-0.095-0.053l-0.009-0.006h-0.01l-0.095-0.044c-1.065-0.503-2.718-0.718-4.905-0.646
	c0.023,0-11.354-0.065-11.354-0.065l0.041,0.007c-1.1-0.098-4.898-0.227-7.748,2.323l0.688,0.096
	c-0.827-1.269-2.705-2.725-6.916-2.491h0.019l-16.086,0.017h-3.677l0.064,0.008c-0.104-0.015-0.211-0.027-0.354-0.039l0.35,0.729
	c0.158-0.233,0.293-0.466,0.406-0.712l0.089-0.184l0.009-0.021l0.007-0.025l0.065-0.185c0.066-0.208,0.7-2.074,0.87-3.981
	c0.11-1.201-0.079-2.249-0.552-3.131l-0.49-0.92l-0.058-0.111l-0.106-0.065l-0.889-0.532c-0.917-0.558-1.852-0.65-2.658-0.69
	c0.004,0-0.108-0.007-0.108-0.007h-0.014h-0.015L23.122,0.408h-0.02h-0.019l-0.151,0.017c-2.986,0.248-8.876,2.443-12.035,9.09
	l-0.034,0.072c-0.008,0.016-0.039,0.089-0.039,0.089c-0.289,0.676-2.822,6.733-3.243,11.116l-0.113,1.192l0.227-0.35
	c-0.915,0.54-1.623,1.336-2.061,2.3l-0.198,0.428l-0.026,0.051L5.4,24.473l-0.573,3.152L4.83,27.6
	c-0.088,0.365-0.135,0.736-0.138,1.115c0,0.824,0.217,1.638,0.642,2.336c0.652,1.104,2.028,2.413,4.867,2.42
	c0.006,0,0.781-0.007,0.781-0.007l-0.432-0.29l0.602,1.472l3.103,7.589l0.419-0.641l-8.938,0.129h0.024
	c-2.305-0.068-4.283,1.336-4.923,3.493l0.883,0.274l0.068-0.208l-0.875-0.3c-0.129,0.362-0.57,1.654-0.775,3.002l0.813-0.223
	l-0.559-0.668c-0.009-0.006-0.252,0.826-0.252,0.826c-0.019,0.07-0.474,1.723,0.37,3.825c0.762,1.89,2.78,4.536,8.073,6.363
	c0.169,0.051,15.811,4.927,21.53,6.661l-0.084-0.033c0.671,0.358,1.427,0.578,2.249,0.654l-0.061-0.006
	c0.403,0.088,0.914,0.094,1.519,0.018l-0.052,0.006l5.17-0.074h-0.053c0.916,0.102,1.836-0.057,2.663-0.447
	c1.063-0.51,2.461-1.638,3.125-4.139l0.028-0.107l0.003-0.016V60.61l1.333-6.59L45.5,54.392l169.127,0.247h0.127l0.106-0.064
	c0.089-0.051,2.224-1.32,4.259-4.334l-0.026,0.034c0.552-0.683,1.04-1.458,1.45-2.305c0.207-0.433,2.024-4.379,2.582-9.856
	l-0.009,0.029c0.029-0.177,2.021-12.439,2.038-12.525c0.061-0.307,0.388-2.027,0.504-4.021c0.031-0.479,0.047-0.963,0.047-1.443
	c0.007-2.689-0.49-4.753-1.521-6.309L224.2,13.87z M224.783,20.151c0,0.46-0.016,0.924-0.044,1.389
	c-0.116,1.934-0.433,3.606-0.494,3.923c-0.017,0.097-2.008,12.34-2.039,12.524V38l-0.002,0.016c-0.539,5.326-2.29,9.139-2.492,9.553
	c-0.377,0.782-0.824,1.5-1.336,2.124l-0.01,0.015l-0.015,0.016c-1.89,2.799-3.913,4.033-3.928,4.038l0.204-0.05L45.503,53.469
	h-0.381l-0.075,0.367l-1.33,6.59l0.007-0.024l-0.028,0.108c-0.574,2.159-1.745,3.12-2.628,3.541c-0.674,0.32-1.423,0.445-2.17,0.369
	h-0.027h-0.029l-5.166,0.066h-0.024l-0.025,0.004c-0.5,0.057-0.906,0.057-1.206-0.008l-0.028-0.006l-0.028-0.004
	c-0.699-0.061-1.336-0.254-1.896-0.549l-0.044-0.029l-0.041-0.01c-5.717-1.731-21.359-6.605-21.514-6.652
	c-9.389-3.247-7.854-9.003-7.839-9.059l-0.798,0.17l0.656,0.787c0.012,0.008,0.166-1.004,0.166-1.004
	c0.189-1.273,0.608-2.491,0.731-2.83l-0.876-0.299L0.846,45.2l0.873,0.278c0.519-1.752,2.135-2.892,4.008-2.827h0.014h0.013
	l8.933-0.133l0.675-0.008l-0.252-0.629l-3.104-7.591l-0.599-1.462l-0.123-0.287h-0.309l-0.774,0.004
	c-2.404-0.004-3.544-1.071-4.076-1.966c-0.334-0.558-0.511-1.203-0.506-1.864c0-0.3,0.033-0.599,0.108-0.895l0.004-0.014
	l0.004-0.016l0.572-3.155l-0.035,0.11l0.199-0.429c0.359-0.796,0.945-1.448,1.691-1.896l0.199-0.121l0.021-0.232L8.5,20.879
	c0.41-4.248,2.889-10.179,3.172-10.842l0.032-0.076c-0.008,0.018,0.024-0.057,0.024-0.057c2.98-6.264,8.496-8.33,11.285-8.564
	l0.146-0.01h-0.035l15.563-0.074H38.66l0.109,0.006C39.497,1.3,40.268,1.375,41,1.823l0.886,0.535l-0.168-0.176l0.491,0.913
	c0.388,0.718,0.536,1.6,0.448,2.614c-0.166,1.829-0.801,3.686-0.826,3.76l-0.065,0.195l0.015-0.05l-0.084,0.185
	c-0.085,0.194-0.203,0.386-0.328,0.568l-0.466,0.664l0.813,0.06c0.116,0.011,0.207,0.017,0.289,0.028l0.028,0.007h0.034l3.677-0.007
	l16.09-0.012h0.015c-0.002,0,0.011,0,0.011,0c2.992-0.168,5.098,0.548,6.101,2.072l0.292,0.447l0.403-0.355
	c2.571-2.31,6.041-2.189,7.044-2.095h0.021h0.02l11.374,0.062c2.062-0.064,3.567,0.119,4.501,0.556l0.091,0.044l-0.019-0.006
	l0.088,0.043c0.491,0.262,0.947,0.593,1.346,0.965l0.354,0.326l0.312-0.371c0.372-0.435,0.813-0.795,1.308-1.073
	c0.879-0.483,1.831-0.657,2.832-0.514h0.035c-0.007,0,0.024,0,0.024,0l6.392,0.064l-0.088-0.017l0.349,0.072
	c1.168,0.23,2.139,0.944,2.734,2.01l0.314,0.565l0.429-0.484c1.546-1.737,3.563-2.28,4.937-2.211l0.119-0.913l-0.139-0.027
	l-0.098,0.916l4.592,0.055c0.354,0,0.711,0.045,1.059,0.127l0.454,0.107l0.098-0.461l0.488-2.26l-0.901-0.196l-0.006,0.031
	l0.904,0.195c0.497-2.42,1.236-4.774,3.222-5.644c0.253-0.107,0.535-0.188,0.888-0.244l0.025-0.002l0.022-0.006l3.094-0.865
	c-0.011,0,3.159-0.816,3.159-0.816h0.015h0.017c2.432-0.781,3.955,0.268,4.5,0.749c1.463,1.313,1.595,3.309,1.234,4.733l0.892,0.225
	l0.045-0.174l-0.9-0.199l-0.858,4.228l-0.084,0.429l0.426,0.111c0.822,0.207,1.479,0.645,1.965,1.305l0.274,0.367l0.372-0.273
	c1.691-1.241,3.218-1.433,3.389-1.457l0.204-0.021h-0.048l10.752,0.02l0.438,0.002l0.023-0.439l-0.461,0.418l20.999,0.029h0.029
	l0.036-0.004c0.743-0.107,1.288-0.119,1.547-0.113l17.357,0.145c0.005,0,24.537,0.039,24.537,0.039l-0.119-0.02l0.23,0.063
	l0.066,0.02l0.065-0.004c4.192-0.084,5.894,2.038,6.429,2.951l0.007,0.014l0.009,0.014C224.342,15.75,224.789,17.646,224.783,20.151
	z"/>
<path d="M170.194,16.362c2.265-1.478,4.573-1.43,4.599-1.428c0.006,0,20.118,0.174,20.118,0.174L194.87,15.1
	c0.214,0.027,0.457,0.066,0.463,0.066l-0.201-0.09l0,0c0,0,0.013,0.016,0.037,0.074c0.143,0.322,0.107,1.053,0.047,1.44
	l-0.003,0.017v0.018c-0.11,1.475-0.451,1.695-0.453,1.695c0.002,0,0.041-0.02,0.118,0l-0.05-0.016h-0.059l-1.094-0.016
	l-10.857-0.117c-3.641-0.104-4.366,0.863-4.508,1.165l0.104-0.142c-1.551,1.469-2.261,4.294-2.291,4.417l0.449-0.353l-12.047-0.02
	l0.438,0.611C166.603,18.995,170.178,16.374,170.194,16.362z M164.525,24.165l12.045,0.021h0.361l0.089-0.354
	c0.006-0.028,0.677-2.684,2.035-3.971l0.059-0.066l0.041-0.076c-0.016,0.025-0.022,0.035-0.022,0.035
	c0.007-0.01,0.561-0.747,3.674-0.658c0.006,0,10.863,0.119,10.863,0.119l1.092,0.012l-0.112-0.012
	c0.076,0.02,0.35,0.063,0.648-0.152c0.467-0.332,0.74-1.107,0.835-2.371l-0.007,0.035c0.02-0.129,0.183-1.27-0.113-1.949
	c-0.082-0.188-0.187-0.332-0.317-0.432l-0.092-0.069l-0.106-0.017c-0.01,0-0.284-0.051-0.536-0.078h-0.019h-0.021l-20.113-0.17
	c-0.093-0.01-2.604-0.063-5.117,1.581c-0.173,0.123-3.861,2.81-5.604,7.962l-0.204,0.609H164.525z"/>
<path d="M162.151,29.379c0.096-1.172,0.357-1.379,0.361-1.379c0,0-0.048,0.028-0.151,0.028c0.021,0,12.804,0.019,12.804,0.019
	c0.104,0.002,0.256,0.025,0.324,0.109c0.086,0.101,0.075,0.281,0.072,0.309l-0.338,2.23v0.017v0.013
	c-0.024,0.245-0.087,0.422-0.185,0.493c-0.076,0.054-0.181,0.042-0.181,0.042l-0.051-0.007h-0.05l-12.876-0.116l0.151,0.025
	c0.05,0.016,0.075,0.047,0.085,0.056c-0.12-0.179-0.102-1.032,0.028-1.796l0.005-0.018V29.379z M161.873,32.06l12.88,0.112
	l-0.101-0.012c0.052,0.012,0.517,0.107,0.932-0.201c0.327-0.234,0.514-0.623,0.56-1.16l-0.002,0.033l0.33-2.229
	c0.009-0.059,0.088-0.612-0.273-1.038c-0.161-0.191-0.468-0.426-1.019-0.44c-0.011,0-12.797-0.022-12.797-0.022
	c-0.281-0.014-0.985,0.176-1.149,2.205l0.006-0.045c-0.195,1.123-0.264,2.508,0.487,2.773l0.073,0.024H161.873z"/>
<path d="M15.158,11.537c2.792-5.881,7.951-6.395,8.175-6.413h-0.041l15.302-0.07h-0.025c0.431,0.022,0.549,0.051,0.554,0.051
	c0,0-0.041-0.012-0.088-0.039l-0.17-0.175c0-0.006-0.003-0.017-0.003-0.017c0.021,0.066,0.031,0.313,0.012,0.502
	c-0.116,1.363-0.627,2.854-0.629,2.869l0.015-0.051l0.006-0.006c-0.04,0.041-0.232,0.078-0.373,0.066h-0.017h-0.022L23.02,8.194
	h-0.151l-0.122,0.085c-0.892,0.64-0.53,1.892-0.174,2.532l5.852,10.573l0.404-0.683L11.817,20.74l0.462,0.504
	C12.631,17.514,15.14,11.581,15.158,11.537z M11.819,21.659l17.013-0.037l0.782-0.004l-0.382-0.683l-5.853-10.567
	c-0.116-0.219-0.475-1.065-0.098-1.333l-0.265,0.083l14.835,0.06l-0.041-0.004c0.101,0.013,0.98,0.071,1.285-0.589l0.011-0.016
	l0.006-0.023c0.022-0.071,0.551-1.614,0.683-3.088c0.017-0.201,0.041-0.713-0.117-1.006l-0.062-0.117l-0.104-0.056
	c-0.072-0.044-0.18-0.114-0.895-0.151h-0.013H38.59L23.288,4.2h-0.022H23.25c-0.237,0.021-5.899,0.563-8.924,6.944
	c-0.116,0.264-2.599,6.145-2.97,10.013l-0.048,0.502H11.819z"/>
<path d="M10.209,28.75c-0.683,0-0.841-0.129-0.841-0.129s0.079,0.074,0.017,0.193l0.031-0.064l0.015-0.07l0.527-2.896l-0.034,0.107
	c0.104-0.223,0.27-0.251,0.301-0.251c-0.005,0,24.33-0.246,24.33-0.246c0.034,0,0.072,0,0.119,0.01
	c0.098,0.021,0.123,0.065,0.133,0.082c0.082,0.123,0.063,0.368,0.043,0.437v0.02l-0.003,0.019l-0.145,1.09L34.7,27.068v0.011
	c-0.107,1.422-0.652,1.566-0.655,1.572l0.073-0.006h-0.202L10.209,28.75z M33.918,29.565h0.199h0.024l0.025-0.003
	c0.128-0.015,1.281-0.198,1.455-2.413l-0.003,0.025l0.142-1.088l-0.006,0.033c0.015-0.063,0.132-0.668-0.174-1.141
	c-0.167-0.245-0.416-0.416-0.728-0.479c-0.106-0.022-0.208-0.027-0.308-0.027c-0.004,0-24.337,0.248-24.337,0.248
	c-0.279,0-0.844,0.167-1.126,0.791l-0.022,0.049l-0.014,0.057l-0.522,2.889l0.043-0.135c-0.087,0.173-0.137,0.467,0.023,0.74
	c0.229,0.378,0.739,0.561,1.618,0.561L33.918,29.565z"/>
<path d="M19.864,49.459L6.27,49.63h0.024l-1.49-0.063c-0.012,0-0.021-0.008-0.021-0.008c0.007,0,0.007,0.008,0.01,0.008
	c-0.034-0.032-0.054-0.183-0.046-0.259V49.29v-0.021c0-0.983,0.601-2.675,0.61-2.688l0.003-0.013l0.003-0.013
	c0.044-0.15,0.312-0.118,0.315-0.118l0.034,0.004H5.75l13.977-0.203h0.031l0.031-0.005c0.277-0.043,0.495-0.195,0.61-0.418
	c0.236-0.46-0.021-1.048-0.106-1.226l0.017,0.044c-0.376-1-4.615-11.338-4.795-11.779l-0.426,0.636l17.136,0.027l-0.457-0.506
	C30.221,49.106,19.964,49.459,19.864,49.459z M32.229,32.592l-17.138-0.024h-0.688l0.259,0.64c0.043,0.105,4.415,10.76,4.784,11.751
	l0.006,0.024l0.016,0.022c0.063,0.138,0.117,0.34,0.104,0.404c0.007-0.036,0.055-0.079,0.085-0.087c0,0-0.003,0-0.009,0l0.066-0.008
	L5.735,45.516l0.071,0.006c-0.365-0.047-1.111,0.041-1.326,0.77l0.006-0.025c-0.028,0.076-0.66,1.858-0.667,3.002l0.007-0.043
	c-0.009,0.096-0.038,0.586,0.268,0.939c0.164,0.191,0.397,0.311,0.667,0.322c0.007,0,1.493,0.068,1.493,0.068h0.014H6.28l13.6-0.174
	c0.117,0,2.867-0.064,5.84-2.26c2.709-2.001,6.123-6.234,6.971-15.021l0.041-0.505L32.229,32.592z"/>
<path d="M84.724,47.381c-2.021,2.444-4.126,1.977-4.148,1.973l-0.047-0.014h-0.057l-35.903-0.095c-0.233,0-0.303-0.05-0.303-0.05
	c0.005,0,0.016,0.015,0.016,0.021c-0.007-0.016,0.003-0.058,0.003-0.058l0.023-0.06l0.008-0.066
	c0.044-0.447,0.256-1.014,0.256-1.014C44.569,48.037,55.7,22.157,55.7,22.157l-0.02,0.046c1.1-1.948,1.015-3.466,1.011-3.532v0.061
	c0.058-0.92-0.868-1.338-1.373-1.434l-0.037-0.007h-0.042l-4.695-0.002c-0.839-0.026-1.478,0.175-1.883,0.61
	c-0.461,0.479-0.434,1.045-0.43,1.108l0.006-0.126l-8.22,40.688l0.013-0.025c-0.215,0.794-0.474,1.016-0.574,1.075
	c-0.088,0.046-0.138,0.035-0.147,0.031c0,0,0.006,0.004,0.024,0.01l-0.097-0.041h-0.098l-6.357,0.084h0.029
	c-0.376-0.019-0.628-0.119-0.75-0.302c-0.195-0.315-0.05-0.882,0.02-1.059l0.016-0.038c0-0.002,0.009-0.045,0.009-0.045
	l8.662-42.436l0.004-0.019l0.003-0.023c0.189-1.491,0.531-1.823,0.636-1.89c0.038-0.023,0.056-0.023,0.069-0.023
	c0,0-0.009,0-0.025-0.011l0.098,0.061h0.126l20.253-0.013h0.017h0.013c2.384-0.158,2.847,0.391,2.851,0.396l-0.074-0.237v0.07
	l0.025,0.066c0.832,2.591-0.964,6.256-0.975,6.293l-0.007,0.015l-0.007,0.011l-9.896,22.938c-0.362,0.941-0.366,1.613-0.02,2.057
	c0.382,0.495,0.99,0.445,1.056,0.438h-0.044l8.438-0.031h0.589l-0.139-0.573c-0.217-0.866-0.034-2.806,0.061-3.478
	c0.189-2.006,3.969-19.323,4.006-19.503l0.004-0.013l0.002-0.016c0.457-3.229,2.852-6.69,2.873-6.725
	c1.559-2.061,4.744-1.654,4.778-1.651l0.032,0.007h0.027l11.573,0.066c2.186-0.086,2.891,0.197,2.896,0.197l-0.029-0.012
	c0.606,0.322,1.063,0.889,1.356,1.67c0.677,1.801,0.252,4.125,0.249,4.15l-0.005,0.025v0.02c-0.044,0.516-0.465,2.869-2.244,11.165
	c-1.068,4.968-2.137,9.806-2.14,9.819C86.592,44.338,85.757,46.127,84.724,47.381z M88.093,42.279
	c0.175-0.788,4.261-19.255,4.404-21.12l-0.006,0.049c0.022-0.102,0.476-2.604-0.289-4.641c-0.376-0.999-0.977-1.723-1.787-2.159
	l-0.012-0.004l-0.01-0.007c-0.081-0.035-0.882-0.376-3.296-0.287c0.021,0-11.555-0.063-11.555-0.063l0.063,0.006
	c-0.152-0.022-3.754-0.488-5.652,2.02c-0.116,0.162-2.554,3.697-3.039,7.137l0.007-0.038c-0.154,0.718-3.831,17.551-4.021,19.591
	c-0.015,0.095-0.346,2.598-0.046,3.808l0.447-0.571l-8.441,0.033h-0.022l-0.022,0.006c0.004,0-0.163,0.009-0.232-0.09
	c-0.031-0.041-0.177-0.299,0.142-1.141c-0.007,0.016,9.893-22.923,9.893-22.923l-0.008,0.024c0.08-0.168,1.974-4.044,1.029-6.983
	l-0.009-0.032l-0.014-0.023c-0.117-0.261-0.743-1.082-3.717-0.889h0.028l-20.253,0.016l0.227,0.064
	c-0.188-0.111-0.538-0.176-0.888,0c-0.598,0.301-0.977,1.154-1.157,2.609l0.004-0.028L31.2,59.079l0.025-0.082
	c-0.047,0.113-0.428,1.131,0.063,1.904c0.287,0.439,0.785,0.688,1.478,0.723h0.014h0.015l6.356-0.082L38.955,61.5
	c0.07,0.033,0.432,0.174,0.876-0.033c0.488-0.24,0.854-0.807,1.09-1.689v-0.014l0.002-0.012l8.22-40.689l0.009-0.059v-0.061
	c0,0-0.007-0.232,0.186-0.42c0.219-0.223,0.629-0.337,1.194-0.32c0.009,0,4.705,0.011,4.705,0.011l-0.081-0.011
	c0.003,0,0.64,0.143,0.617,0.467v0.027v0.033c0,0.012,0.063,1.328-0.895,3.018l-0.01,0.018l-0.01,0.026L43.717,47.676
	c-0.016,0.044-0.265,0.693-0.318,1.275l0.029-0.135c-0.02,0.051-0.188,0.504,0.081,0.9c0.202,0.297,0.555,0.447,1.06,0.447
	l35.9,0.102l-0.104-0.016c0.106,0.028,2.689,0.601,5.073-2.284C86.557,46.612,87.449,44.707,88.093,42.279z"/>
<path d="M107.822,28.823c0.024,0.008,0.056,0.03,0.069,0.043c-0.091-0.15,0.006-0.837,0.204-1.398
	c0.64-1.691,0.233-2.314,0.093-2.457l-0.026-0.031l-0.028-0.018c-0.154-0.119-0.34-0.165-0.528-0.124
	c-0.442,0.091-0.813,0.649-0.989,0.974l-0.009,0.016l-0.005,0.016l-9.518,20.707l-0.006,0.017v0.004
	c-1.166,2.896-1.94,2.884-1.953,2.884c0,0,0.022,0.006,0.06,0.031l-0.113-0.074h-0.139l-5.452,0.036
	c-0.098,0-0.23-0.013-0.277-0.079c-0.107-0.157-0.038-0.576,0.047-0.809l0.013-0.031l0.009-0.035l6.924-32.103
	c0.145-0.688,0.394-1.149,0.725-1.338c0.287-0.168,0.558-0.083,0.574-0.077L97.559,15c0.011,0,0.086,0,0.086,0
	c-0.007,0,6.341,0.056,6.341,0.056l-0.085-0.004c0.292,0.056,0.378,0.988,0.258,1.754l0.003-0.029l-3.865,17.821
	c-0.125,0.557-0.214,0.965,0.13,1.166l0.293,0.174c0.013-0.004,0.262-0.223,0.262-0.223l-0.633-0.021
	c0.125,0.127,0.302,0.177,0.471,0.151c0.108-0.024,0.393-0.082,0.685-0.773c-0.009,0.018,6.725-14.297,6.725-14.297
	c0.813-1.832,2.428-4.459,2.448-4.477c0.875-1.33,2.153-1.324,2.207-1.324c0.003,0,4.582,0.057,4.582,0.057
	c0.108,0,0.206,0.014,0.298,0.039c0.724,0.207,0.557,1.386,0.554,1.398l-0.01,0.037v0.035c0.041,1.15-1.335,7.486-1.873,9.829
	c-0.445,2.28-0.904,2.511-0.91,2.511c0.006,0,0.071-0.028,0.169,0.051l-0.126-0.102h-0.154h-0.686l-6.978-0.016L107.822,28.823z
	 M114.721,29.755h0.688l-0.281-0.096c0.152,0.114,0.423,0.195,0.726,0.081c0.636-0.239,1.105-1.248,1.483-3.181
	c0.198-0.862,1.943-8.57,1.896-10.035l-0.007,0.089c0.11-0.689,0-2.079-1.213-2.432c-0.167-0.045-0.346-0.072-0.538-0.072
	c-0.003,0-4.577-0.057-4.577-0.057c-0.06,0-1.827-0.035-3.004,1.748c-0.073,0.117-1.674,2.713-2.508,4.592
	c0.003-0.01-6.729,14.303-6.729,14.303c-0.053,0.131-0.133,0.275-0.17,0.313c0.02-0.019,0.102-0.075,0.224-0.081
	c0.106,0,0.212,0.036,0.287,0.112l-0.306-0.308l-0.324,0.29l0.48-0.072c0.188,0.082,0.26,0.256,0.26,0.35
	c0-0.011,0-0.114,0.092-0.512l3.863-17.815l0.004-0.013v-0.012c0.041-0.256,0.366-2.533-0.99-2.805l-0.043-0.006h-0.044
	l-6.344-0.059l0.158,0.031c-0.069-0.029-0.675-0.23-1.32,0.125c-0.589,0.324-0.989,0.986-1.19,1.962l-6.927,32.097l0.022-0.063
	c-0.042,0.104-0.375,1.04,0.056,1.661c0.151,0.217,0.45,0.482,1.037,0.482c0.003,0,5.454-0.042,5.454-0.042l-0.247-0.065
	c0.157,0.101,0.453,0.166,0.8,0.057c0.817-0.266,1.638-1.406,2.443-3.408l-0.012,0.021l9.516-20.711l-0.013,0.033
	c0.123-0.23,0.317-0.486,0.403-0.532c-0.041,0.025-0.161,0.034-0.259-0.04l-0.057-0.047c-0.025-0.027-0.031-0.046-0.031-0.046
	c0,0.004,0.192,0.381-0.255,1.56c-0.13,0.362-0.499,1.568-0.13,2.193c0.13,0.213,0.333,0.352,0.577,0.395h0.037h0.034
	L114.721,29.755z"/>
<path d="M149.426,49.278l-9.624,0.09l-0.457,0.011l0.003,0.456v0.057l0.456-0.467l-4.806-0.002c-0.007,0-2.017,0.021-2.017,0.021
	l0.092,0.01l-0.14-0.029l-0.037-0.006h-0.044l-16.095-0.023l0.104,0.016c-1.66-0.387-1.267-3.986-0.975-5.343l7.45-34.517
	c0.539-2.626,1.012-2.928,1.033-2.938c-0.003,0.003-0.106,0.054-0.248-0.034l0.169,0.103l0.189-0.052l3.369-0.945
	c-0.009,0.006,3.189-0.816,3.189-0.816l0.021-0.004l0.021-0.012c0.458-0.163,0.808-0.191,0.946-0.068
	c0.186,0.163,0.164,0.685,0.091,0.982l-0.015,0.057v0.057l0.013-0.088l-1.733,8.561l-0.11,0.555h0.556l3.129,0.043
	c0.333,0,0.427,0.025,0.433,0.025c-0.034-0.006-0.136-0.063-0.195-0.182l-0.005-0.359l-0.049,0.113l0.02,0.123
	c0.047,0.318-0.042,1.061-0.104,1.445v0.016l-0.008,0.018c-0.057,0.602-0.217,1.031-0.444,1.176
	c-0.122,0.082-0.244,0.058-0.247,0.058l-0.066-0.025h-0.073l-3.175-0.05l-0.381-0.008l-0.078,0.366l-5.539,25.753l-0.005,0.016
	l-0.004,0.018c-0.206,1.561-0.025,2.652,0.533,3.252c0.435,0.469,0.938,0.451,0.991,0.451h-0.024l7.274-0.064l0.467-0.002
	l-0.012-0.467l-0.455,0.456l11.035-0.112c1.744-0.029,2.443-1.776,2.576-2.702c-0.006,0.006,1.401-8.843,1.401-8.843
	c0.158-0.961,0.038-1.611-0.355-1.993c-0.391-0.372-0.868-0.287-0.923-0.276l0.091-0.008l-10.684,0.113
	c-0.338,0-0.589-0.094-0.589-0.094l0.136,0.081c0,0.007,0.006,0.007,0.006,0.007c-0.164-0.184-0.18-1.14-0.04-2.022l0.003-0.017
	v-0.016c0.471-4.96,1.983-10.998,1.995-11.055c1.389-4.756,4.232-5.115,4.259-5.121l-0.049,0.006l16.566,0.026
	c0.013,0,0.02,0.004,0.02,0.004c0-0.004-0.003-0.004-0.003-0.004c0.073,0.075,0.078,0.478-0.019,0.841l-0.01,0.039l-0.003,0.043
	c-0.102,1.236-0.41,1.418-0.413,1.418c0.003,0,0.029-0.011,0.101,0l-0.045-0.011h-0.037l-10.368-0.044h-0.02h-0.02
	c-1.117,0.075-1.842,1.723-1.978,2.056l-0.021,0.052l-0.007,0.049l-1.342,8.728l0.006-0.024c-0.252,1.207-0.157,1.988,0.3,2.375
	c0.429,0.371,0.945,0.196,1.004,0.174l-0.159,0.034l10.752-0.052h-0.023c0.279,0.009,0.39,0.114,0.442,0.201
	c0.256,0.34,0.158,1.113,0.076,1.432l-0.002,0.025l-0.004,0.023l-1.72,10.24l0.002-0.033c-1.652,6.75-5.14,6.664-5.291,6.66h-0.013
	C149.443,49.278,149.426,49.278,149.426,49.278z M155.657,42.801l1.718-10.243l-0.007,0.044c0.038-0.143,0.354-1.432-0.224-2.225
	c-0.18-0.238-0.527-0.541-1.146-0.574h-0.015h-0.011l-10.749,0.052h-0.083l-0.075,0.031c0.013-0.006-0.058,0.013-0.085-0.017
	c-0.013-0.004-0.256-0.247,0.003-1.482v-0.016l0.004-0.01l1.34-8.725l-0.027,0.102c0.246-0.602,0.799-1.455,1.191-1.484h-0.038
	l10.372,0.051l-0.082-0.01c0.079,0.019,0.35,0.045,0.643-0.183c0.423-0.325,0.675-0.997,0.755-2.062l-0.011,0.08
	c0.051-0.172,0.27-1.079-0.127-1.623c-0.173-0.231-0.428-0.371-0.743-0.379c-0.013-0.004-16.586-0.025-16.586-0.025h-0.026
	l-0.025,0.002c-0.138,0.02-3.483,0.436-5.045,5.789c-0.022,0.082-1.547,6.184-2.025,11.217l0.003-0.029
	c-0.107,0.676-0.29,2.299,0.337,2.854l0.061,0.052l0.075,0.027c0.038,0.015,0.412,0.16,0.926,0.164
	c0.007,0,10.693-0.114,10.693-0.114h0.047l0.047-0.009c-0.016,0.006-0.021,0.006-0.021,0.006c0.012-0.006,0.075-0.006,0.112,0.039
	c0.042,0.036,0.224,0.285,0.083,1.172c0,0.006-1.408,8.852-1.408,8.852c-0.011,0.088-0.29,1.895-1.67,1.921l-11.037,0.108
	l-0.463,0.004l0.01,0.463l0.453-0.451l-7.27,0.057h-0.01h-0.016c0.016,0,0.02,0,0.02,0c-0.016,0-0.16-0.006-0.303-0.176
	c-0.192-0.227-0.485-0.852-0.264-2.475l-0.01,0.033l5.537-25.745l-0.457,0.36l3.178,0.052l-0.135-0.022
	c0.05,0.02,0.545,0.166,1.039-0.158c0.479-0.314,0.771-0.938,0.86-1.861l-0.003,0.033c0.016-0.117,0.182-1.16,0.106-1.727
	l-0.029,0.236c0.061-0.143,0.039-0.316-0.049-0.451c-0.175-0.252-0.511-0.302-1.029-0.302c0.002,0-3.126-0.038-3.126-0.038
	l0.447,0.548l1.732-8.561l-0.009,0.019c0.037-0.129,0.305-1.298-0.366-1.896c-0.422-0.379-1.053-0.412-1.881-0.104l0.048-0.015
	l-3.197,0.814c-0.009,0.004-3.38,0.949-3.38,0.949l0.363,0.051c-0.06-0.041-0.294-0.158-0.602-0.02
	c-0.388,0.17-0.975,0.725-1.566,3.588c0.007-0.004-7.446,34.515-7.446,34.515c-0.051,0.237-1.206,5.769,1.667,6.433l0.051,0.01
	h0.057l16.092,0.024l-0.079-0.01l0.136,0.024l0.044,0.011h0.044L135,50.341c-0.002,0,4.804,0.009,4.804,0.009h0.467l-0.003-0.466
	v-0.05l-0.453,0.463l9.625-0.097h-0.037c0.182,0.009,4.391,0.191,6.242-7.364l0.003-0.016L155.657,42.801z"/>
<path d="M191.651,48.952c-0.01,0.023-0.041,0.108-0.041,0.108l-0.047-0.01h-0.046h-0.853l-18.971,0.037
	c-1.744-0.058-2.284-0.302-2.291-0.302l0.021,0.009l-0.036-0.021l-0.035-0.013c-4.901-1.738-4.641-13.104-4.641-13.217l-0.466,0.447
	l12.256,0.094l-0.44-0.585c-0.372,1.319-0.611,6.249-0.616,6.464c-0.045,1.474,0.292,2.578,0.997,3.295
	c0.771,0.771,1.697,0.762,1.735,0.762c-0.009,0,11.409-0.041,11.409-0.041l2.065-0.004l0.048-0.918
	c-0.116-0.014-0.25-0.026-0.268-0.026l0.4,0.501l-0.489,0.416c0.007,0,0.055,0,0.297,0.025c0.323,0.031,0.361,0.217,0.361,0.223
	l-0.006-0.07C192.025,47.727,191.653,48.938,191.651,48.952z M192.911,46.038c-0.054-0.308-0.37-0.906-1.182-0.98
	c-0.363-0.033-0.768-0.076-0.816,0.383c-0.041,0.457,0.385,0.498,0.697,0.533l0.043-0.916h-2.069l-11.417,0.04
	c-0.026,0-0.597-0.006-1.084-0.508c-0.511-0.521-0.753-1.394-0.718-2.595c0.082-1.727,0.311-5.266,0.585-6.244l0.16-0.578
	l-0.601-0.01l-12.253-0.09l-0.453-0.011l-0.013,0.449c-0.014,0.499-0.277,12.159,5.254,14.121l-0.06-0.026
	c0.104,0.055,0.728,0.334,2.696,0.408c0.016,0,18.983-0.039,18.983-0.039c0.003,0,0.859,0,0.859,0l-0.094-0.012
	c0.331,0.064,0.895-0.079,1.103-0.738c0.013-0.055,0.418-1.355,0.387-3.116v-0.032L192.911,46.038z"/>
<path d="M220.505,24.803l-2.058,12.656v0.018l-0.003,0.017c-0.469,4.876-2.132,8.388-2.153,8.425
	c-1.633,3.383-4.311,3.162-4.426,3.15h-0.022h-0.019l-13.805-0.075c-1.352,0.025-2.127-0.177-2.537-0.347
	c-0.207-0.088-0.339-0.17-0.406-0.227c-0.03-0.025-0.05-0.045-0.056-0.051l0.091,0.281v-0.199l-0.142-0.139
	c-1.412-1.342-1.261-5.069-1.088-6.389c0,0.013,3.163-19.238,3.163-19.238c0.633-3.965,2.609-6.038,2.631-6.055l0.015-0.012
	c0-0.006,0.011-0.018,0.011-0.018c1.392-1.677,5.008-1.254,5.048-1.252h0.028h0.029l4.838-0.033l6.119-0.041l0.032-0.004h0.028
	c3.527-0.504,4.299,0.963,4.307,0.977l0.019,0.045c0.007,0.006,0.031,0.039,0.031,0.039
	C221.513,18.106,220.875,23.032,220.505,24.803z M220.972,15.868c-0.041-0.086-0.995-2.115-5.279-1.508l0.063-0.008l-6.121,0.041
	l-4.835,0.041h0.061c-0.173-0.02-4.157-0.484-5.869,1.584l0.026-0.027c-0.092,0.085-2.203,2.279-2.883,6.551
	c0-0.007-3.162,19.246-3.162,19.246c-0.028,0.232-0.684,5.25,1.361,7.195l-0.057-0.066c0.126,0.178,0.902,1.051,3.751,1.003
	c-0.012,0,13.788,0.063,13.788,0.063h-0.046c0.14,0.017,3.431,0.335,5.354-3.659c0.07-0.152,1.756-3.692,2.236-8.738l-0.002,0.025
	l2.06-12.655c0.052-0.258,1.354-6.715-0.505-9.181L220.972,15.868z"/>
<path d="M211.723,18.081l-4.125,0.042c0,0-1.046,0.333-1.428,2.083l-3.779,23.662c0,0-0.574,2.278,0.901,2.322l4.028,0.006
	c0,0,1.043-0.041,1.807-3.978l3.449-21.761C212.577,20.458,213.101,18.413,211.723,18.081z"/>
<path d="M211.719,17.622l-4.129,0.037h-0.065l-0.066,0.027c-0.052,0.018-1.307,0.427-1.738,2.424v0.01l-0.007,0.016l-3.78,23.662
	l0.011-0.04c-0.042,0.159-0.368,1.558,0.235,2.357c0.256,0.341,0.631,0.522,1.094,0.542c0.02,0,4.044,0.006,4.044,0.006
	c0.443-0.02,1.51-0.481,2.262-4.354c0.002-0.018,3.453-21.783,3.453-21.783l-0.011,0.043c0.035-0.135,0.325-1.354-0.186-2.211
	c-0.224-0.368-0.571-0.62-1.004-0.723l-0.055-0.021L211.719,17.622z M212.118,20.383l-3.445,21.763
	c-0.635,3.278-1.432,3.603-1.44,3.608c0,0,0.003-0.006,0.017-0.006L207,45.796c-0.02,0-0.114,0.241-0.114,0.241l0.436-0.293
	l-4.028-0.015c-0.224-0.007-0.319-0.091-0.376-0.167c-0.258-0.344-0.186-1.148-0.082-1.581l0.006-0.021l0.007-0.021l3.78-23.661
	l-0.006,0.025c0.313-1.441,1.09-1.733,1.121-1.745l-0.138,0.024l4.126-0.043l-0.113-0.013c0.194,0.05,0.333,0.151,0.428,0.308
	c0.271,0.441,0.146,1.254,0.081,1.506l-0.003,0.019L212.118,20.383z"/>
<path fill="#0067B1" d="M4.77,50.35l1.487,0.066l13.601-0.166c0,0,10.747-0.18,12.353-16.873l-17.142-0.02
	c0,0,4.418,10.754,4.795,11.764c0,0,0.441,0.893-0.16,0.982L5.727,46.307c0,0-0.667-0.096-0.822,0.443c0,0-0.635,1.771-0.635,2.842
	C4.27,49.592,4.204,50.323,4.77,50.35z"/>
<path fill="#FFFFFF" d="M4.739,51.182l1.483,0.066h0.021H6.27l13.598-0.171c0.123,0,2.988-0.075,6.057-2.334
	c2.772-2.047,6.256-6.353,7.116-15.285l0.085-0.907h-0.911l-17.138-0.025h-1.241l0.47,1.141c0.043,0.114,4.409,10.76,4.781,11.749
	l0.015,0.037l0.017,0.046c0.034,0.063,0.069,0.168,0.072,0.219c-0.007-0.145,0.16-0.402,0.388-0.435l0.113-0.011L5.712,45.475
	l0.135,0.006c-0.664-0.09-1.49,0.186-1.741,1.031l0.02-0.049c-0.073,0.199-0.685,1.943-0.689,3.129l0.005-0.076
	c-0.013,0.127-0.044,0.757,0.359,1.217C4.028,51.002,4.357,51.161,4.739,51.182z M5.098,49.598c0.003-0.764,0.425-2.117,0.585-2.57
	l0.013-0.021L5.7,46.985c-0.021,0.074-0.099,0.137-0.136,0.153c0.006-0.011,0.044-0.011,0.044-0.011l0.066,0.011h0.063l13.979-0.204
	h0.061l0.056-0.014c0.394-0.057,0.706-0.277,0.879-0.608c0.318-0.613,0-1.348-0.104-1.556l0.034,0.072
	c-0.381-1.011-4.618-11.352-4.801-11.786l-0.772,1.142l17.142,0.023l-0.828-0.909c-1.511,15.778-11.439,16.12-11.54,16.12
	c0.003,0-13.599,0.168-13.599,0.168h0.051l-1.49-0.064c0.146,0.013,0.274,0.127,0.301,0.201c-0.007-0.012-0.007-0.056-0.007-0.056
	V49.63V49.598z"/>
<path fill="#0067B1" d="M22.958,10.918c0,0-0.756-1.367,0.044-1.935l14.836,0.059c0,0,0.648,0.057,0.824-0.322
	c0,0,0.525-1.544,0.656-2.979c0,0,0.05-0.543-0.061-0.744c0,0-0.079-0.05-0.68-0.082l-15.306,0.07c0,0-5.597,0.473-8.545,6.677
	c0,0-2.555,6.024-2.927,9.862l17.011-0.041L22.958,10.918z"/>
<path fill="#FFFFFF" d="M23.688,10.516L23.688,10.516c-0.176-0.328-0.265-0.756-0.211-0.857l0,0c0,0,0,0,0.007,0L22.999,9.81
	l14.836,0.063l-0.069-0.006c0.566,0.05,1.342-0.134,1.649-0.8l0.02-0.041l0.012-0.042c0.022-0.065,0.564-1.649,0.699-3.169
	c0.035-0.357,0.028-0.861-0.156-1.215L39.88,4.402l-0.191-0.116c-0.174-0.107-0.381-0.162-1.065-0.201H38.6h-0.026L23.265,4.153
	h-0.028L23.203,4.16c-0.249,0.019-6.107,0.583-9.229,7.147l-0.007,0.016l-0.006,0.019c-0.107,0.247-2.608,6.183-2.986,10.104
	l-0.088,0.91h0.917l17.012-0.041h1.405l-0.682-1.232L23.688,10.516z M28.811,20.659L11.8,20.694l0.828,0.908
	c0.354-3.672,2.835-9.556,2.861-9.612l-0.014,0.026c2.712-5.709,7.815-6.193,7.865-6.201h-0.063L38.58,5.741h-0.047
	c0.369,0.025,0.485,0.044,0.488,0.051c-0.003,0-0.092-0.025-0.195-0.086l-0.3-0.318c-0.027-0.052-0.037-0.088-0.037-0.088
	c0.013,0.057,0.017,0.233,0.003,0.365c-0.119,1.316-0.611,2.766-0.614,2.781l0.031-0.078c0.054-0.107,0.133-0.157,0.158-0.174
	c-0.04,0.017-0.139,0.022-0.158,0.022L37.875,8.21h-0.031L23.001,8.154h-0.265l-0.214,0.151c-1.108,0.787-0.705,2.26-0.293,3.012
	c0.004,0.006,5.855,10.576,5.855,10.576L28.811,20.659z"/>
<path fill="#0067B1" d="M92.023,21.452c0,0,0.463-2.457-0.268-4.398c-0.293-0.785-0.782-1.485-1.572-1.91
	c0,0-0.712-0.338-3.085-0.242l-11.571-0.067c0,0-3.462-0.481-5.219,1.843c0,0-2.472,3.554-2.948,6.92c0,0-3.824,17.498-4.017,19.539
	c0,0-0.332,2.514-0.051,3.654l-8.446,0.03c0,0-1.326,0.14-0.564-1.855l9.896-22.939c0,0,1.903-3.838,1.009-6.64
	c0,0-0.378-0.801-3.271-0.617l-20.252,0.016c0,0-1.012-0.574-1.365,2.274L31.634,59.5c0,0-0.758,1.89,1.137,1.99l6.356-0.084
	c0,0,0.854,0.383,1.327-1.421l8.218-40.683c0,0-0.089-1.285,1.852-1.234l4.7,0.006c0,0,1.042,0.195,0.995,0.955
	c0,0,0.089,1.42-0.958,3.27L44.126,48.178c0,0-0.236,0.616-0.283,1.14c0,0-0.286,0.71,0.706,0.716l35.906,0.094
	c0,0,2.38,0.568,4.61-2.129c0.946-1.145,1.869-2.877,2.563-5.494C87.628,42.504,91.878,23.304,92.023,21.452z M83.391,20.633
	l-5.108,23.661c-0.476,2.608-1.899,2.558-1.899,2.558h-2.797c-1.758,0.043-1.71-0.814-1.71-0.814
	c-0.281-0.762,0.239-2.563,0.239-2.563l4.684-22c0.711-3.362,2.041-3.362,2.041-3.362l3.604,0.05
	C83.916,18.214,83.391,20.633,83.391,20.633z"/>
<path fill="#FFFFFF" d="M92.838,21.602c0.021-0.107,0.491-2.701-0.302-4.844c-0.411-1.084-1.072-1.871-1.963-2.351l-0.02-0.011
	l-0.021-0.008c-0.208-0.101-1.077-0.412-3.466-0.32h0.036L75.53,14.002l0.11,0.01c-0.16-0.025-3.968-0.518-5.994,2.164l-0.013,0.016
	l-0.005,0.009c-0.108,0.155-2.593,3.761-3.094,7.278l0.013-0.056c-0.158,0.712-3.837,17.569-4.031,19.636l0.002-0.031
	c-0.034,0.264-0.344,2.702-0.034,3.957l0.803-1.027l-8.44,0.032h-0.045h-0.042c0.023,0,0.032,0,0.032,0c-0.003,0-0.009,0-0.015,0
	c0.04,0.009,0.094,0.065,0.106,0.101c0,0-0.063-0.209,0.174-0.826l-0.013,0.033l9.896-22.941L64.924,22.4
	c0.082-0.173,2.039-4.181,1.053-7.265l-0.016-0.049l-0.022-0.051c-0.232-0.494-1.067-1.291-4.081-1.1h0.056l-20.249,0.021
	l0.405,0.104c-0.284-0.159-0.756-0.244-1.237-0.008c-0.725,0.364-1.156,1.287-1.358,2.902l0.013-0.064l-8.665,42.439l0.045-0.145
	c-0.055,0.131-0.498,1.31,0.095,2.236c0.242,0.379,0.749,0.844,1.767,0.9h0.028h0.024l6.36-0.086l-0.353-0.077
	c0.271,0.123,0.727,0.179,1.187-0.038c0.589-0.284,1.021-0.93,1.285-1.928l0.003-0.019l0.009-0.022l8.213-40.687l0.024-0.112
	l-0.006-0.113c0,0.024,0,0.037,0,0.037c0.013-0.248,0.391-0.39,0.995-0.377c0.025,0,4.726,0.006,4.726,0.006l-0.151-0.014
	c0.12,0.025,0.295,0.102,0.343,0.152c-0.02-0.012-0.028-0.051-0.025-0.069l-0.006,0.054l0.006,0.051
	c0,0.006,0.046,1.225-0.849,2.813l-0.023,0.041l-0.016,0.033L43.362,47.854l-0.003,0.008l-0.007,0.018
	c-0.028,0.074-0.283,0.742-0.337,1.359l0.054-0.23c-0.131,0.324-0.171,0.817,0.116,1.242c0.192,0.279,0.579,0.607,1.364,0.613
	l35.906,0.096l-0.191-0.02c0.119,0.025,2.914,0.643,5.44-2.412c1.156-1.4,2.068-3.352,2.728-5.814l0.003-0.014l0.006-0.016
	c0.174-0.787,4.263-19.279,4.41-21.166L92.838,21.602z M86.826,42.292c-0.59,2.229-1.401,3.971-2.396,5.178
	c-1.844,2.229-3.711,1.863-3.79,1.852l-0.095-0.025c0.007,0.006-0.085,0.006-0.085,0.006l-35.908-0.1
	c-0.103,0-0.141-0.014-0.141-0.014c0.027,0.008,0.119,0.058,0.182,0.18c0.017,0.043,0.061,0.142,0.028,0.23l-0.005,0.028l0.04-0.117
	l0.009-0.114c0.036-0.326,0.188-0.773,0.241-0.918l-0.017,0.031L56.02,22.631l-0.033,0.076c0.48-0.854,1.061-2.188,1.061-3.678
	l-0.003,0.051c0.069-1.024-0.822-1.667-1.673-1.824l-0.073-0.01h-0.074l-4.7-0.006c-0.935-0.025-1.666,0.217-2.147,0.727
	c-0.562,0.58-0.539,1.26-0.53,1.393l0.017-0.223l-8.218,40.686l0.01-0.051c-0.187,0.713-0.397,0.851-0.401,0.851
	c0.028-0.019,0.089-0.032,0.215,0.024l-0.167-0.072h-0.185l-6.357,0.086h0.058c-0.281-0.01-0.423-0.076-0.457-0.136
	c-0.092-0.136-0.033-0.515,0.05-0.726l0.024-0.062c0.004-0.01,0.017-0.072,0.017-0.072l8.662-42.441l0.009-0.03v-0.032
	c0.165-1.305,0.451-1.618,0.454-1.618c-0.063,0.031-0.17,0.05-0.324-0.035l0.192,0.11l0.224-0.011l20.249-0.015h0.025h0.025
	c2.064-0.132,2.555,0.283,2.558,0.289c0,0-0.04-0.044-0.088-0.138l-0.041-0.102c0.648,2.034-0.473,5.027-0.961,6.016l-0.014,0.02
	l-0.002,0.02L53.52,44.64l-0.007,0.017l-0.004,0.016c-0.151,0.385-0.601,1.561,0.036,2.393c0.383,0.494,0.987,0.624,1.389,0.58
	l-0.083,0.007l8.441-0.032l1.06-0.01l-0.256-1.023c-0.179-0.718-0.05-2.432,0.073-3.343l0.003-0.015v-0.012
	c0.144-1.579,2.678-13.403,3.997-19.441l0.006-0.03l0.003-0.032c0.444-3.129,2.787-6.533,2.813-6.564l-0.021,0.031
	c1.438-1.902,4.416-1.531,4.444-1.521l0.056,0.004h0.058c-0.006,0,11.566,0.068,11.566,0.068h0.02h0.018
	c2.038-0.082,2.722,0.172,2.729,0.172c0,0-0.01,0-0.031-0.01l-0.034-0.023c0.531,0.287,0.919,0.772,1.18,1.476
	c0.641,1.7,0.239,3.931,0.234,3.956l-0.01,0.041c0,0.003,0,0.047,0,0.047c-0.12,1.468-3.204,15.609-4.379,20.939L86.826,42.292z"/>
<path fill="#FFFFFF" d="M82.583,20.458l-5.116,23.66v0.016l-0.003,0.016c-0.261,1.424-0.834,1.85-1.097,1.871c0,0,0.016,0,0.044,0
	h-0.016h-0.013h-2.797h-0.012h-0.013c-0.716,0.018-0.901-0.145-0.901-0.145c0.016,0.015,0.047,0.07,0.047,0.162V45.89l-0.053-0.136
	c-0.099-0.264,0.028-1.239,0.262-2.047l0.007-0.024l0.008-0.032l4.677-21.998c0.438-2.058,1.109-2.658,1.327-2.721
	c0,0-0.031,0.012-0.097,0.012c-0.01,0,3.596,0.051,3.596,0.051c0.06,0,0.076,0.019,0.082,0.024
	C82.686,19.237,82.686,19.952,82.583,20.458z M82.459,17.331l-3.606-0.05c-0.343,0-2.05,0.193-2.868,4.021l-4.679,22.003
	l0.019-0.061c-0.145,0.489-0.58,2.14-0.226,3.089l-0.052-0.343c-0.006,0.138,0,0.606,0.419,1.042c0.442,0.449,1.163,0.67,2.14,0.648
	h-0.022l2.8,0.004h-0.031c0.089,0,2.146,0.036,2.744-3.242l-0.004,0.029l5.11-23.663c0.069-0.302,0.358-1.864-0.373-2.802
	C83.502,17.584,83.036,17.351,82.459,17.331z"/>
<path fill="#0067B1" d="M116.868,26.793c0,0,1.932-8.479,1.891-9.928c0,0,0.255-1.588-0.883-1.916
	c-0.126-0.03-0.262-0.049-0.418-0.057l-4.58-0.049c0,0-1.562-0.051-2.612,1.529c0,0-1.64,2.66-2.472,4.531l-6.731,14.318
	c0,0-0.262,0.613-0.403,0.472c0,0-0.098,0.077,0.073-0.681l3.868-17.815c0,0,0.332-2.084-0.631-2.273l-6.341-0.056
	c0,0-1.424-0.531-1.898,1.75l-6.923,32.104c0,0-0.57,1.512,0.661,1.512l5.456-0.034c0,0,1.039,0.663,2.563-3.129l9.519-20.713
	c0,0,0.524-0.949,0.832-0.712c0,0,0.4,0.432-0.195,1.994c0,0-0.643,1.849,0.089,1.969l6.979,0.006l0.683,0.007
	C115.393,29.623,116.201,30.237,116.868,26.793z"/>
<path fill="#FFFFFF" d="M117.678,26.983c0.201-0.883,1.959-8.637,1.908-10.142l-0.014,0.157c0.13-0.802-0.012-2.426-1.477-2.841
	c-0.191-0.058-0.402-0.089-0.631-0.097l-4.579-0.049c-0.063,0-2.025-0.045-3.31,1.908l-0.01,0.012l-0.007,0.011
	c-0.066,0.11-1.683,2.72-2.522,4.626c0.003-0.019-6.728,14.301-6.728,14.301l-0.008,0.014l-0.006,0.015
	c-0.028,0.065-0.081,0.175-0.106,0.208c0.037-0.061,0.198-0.203,0.46-0.219c0.224-0.018,0.44,0.064,0.599,0.221l-0.555-0.553
	l-0.583,0.518l0.899-0.123c0.348,0.173,0.462,0.506,0.453,0.688c0-0.01,0.005-0.11,0.077-0.447l3.868-17.819l0.003-0.021
	l0.006-0.021c0.224-1.388,0.008-2.965-1.281-3.221l-0.075-0.016h-0.082l-6.343-0.057l0.277,0.05
	c-0.08-0.034-0.833-0.283-1.627,0.151c-0.679,0.379-1.139,1.121-1.37,2.212c0-0.011-6.923,32.092-6.923,32.092l0.034-0.116
	c-0.075,0.203-0.427,1.241,0.098,1.996c0.168,0.244,0.559,0.644,1.339,0.644c0.007,0,5.462-0.038,5.462-0.038l-0.449-0.133
	c0.113,0.077,0.521,0.293,1.11,0.105c0.942-0.305,1.815-1.491,2.668-3.619l-0.012,0.037l9.511-20.717l-0.027,0.059
	c0.092-0.152,0.233-0.352,0.297-0.401c-0.107,0.089-0.436,0.146-0.696-0.057l-0.099-0.089c-0.085-0.086-0.104-0.15-0.106-0.15
	c0.003,0,0.104,0.337-0.258,1.279v0.014l-0.005,0.01c-0.219,0.625-0.519,1.781-0.096,2.489c0.185,0.31,0.484,0.517,0.834,0.573
	l0.066,0.01h0.066l6.979,0.011h0.683l-0.506-0.171c0.229,0.176,0.637,0.302,1.08,0.137c0.778-0.295,1.311-1.36,1.716-3.457
	L117.678,26.983z M115.393,28.791h-0.683l-6.979-0.009l0.135,0.009c0.209,0.032,0.331,0.198,0.354,0.278
	c-0.038-0.17,0.06-0.729,0.207-1.154l-0.113,0.215l0.066-0.088l0.041-0.107c0.673-1.783,0.302-2.551,0.021-2.854l-0.047-0.052
	l-0.054-0.034c-0.235-0.186-0.529-0.254-0.828-0.191c-0.558,0.113-0.982,0.689-1.238,1.152l-0.012,0.028l-0.016,0.029l-9.51,20.709
	l-0.014,0.022l-0.006,0.019c-0.979,2.438-1.631,2.655-1.638,2.655c0.007,0,0.113-0.034,0.287,0.079l-0.205-0.13h-0.248l-5.453,0.043
	c-0.047,0-0.068-0.014-0.068-0.014c0.044,0.014,0.103,0.078,0.119,0.119c-0.031-0.094,0.019-0.371,0.072-0.504l0.021-0.061
	l0.01-0.059l6.927-32.104c0.12-0.572,0.318-0.969,0.551-1.099c0.12-0.066,0.247-0.048,0.247-0.048l0.138,0.051h0.142l6.347,0.056
	l-0.157-0.011c-0.051-0.014-0.091-0.048-0.104-0.064c0.123,0.162,0.157,0.865,0.072,1.393l0.009-0.038l-3.867,17.81
	c-0.13,0.604-0.271,1.23,0.308,1.572l0.517,0.305c0.014,0,0.464-0.403,0.464-0.403l-1.137-0.032c0.211,0.209,0.51,0.307,0.803,0.251
	c0.251-0.052,0.621-0.206,0.954-0.987l-0.015,0.028l6.733-14.312c0.811-1.814,2.413-4.419,2.428-4.445l-0.012,0.019
	c0.762-1.159,1.857-1.159,1.899-1.159c0.002,0,4.582,0.051,4.582,0.051c0.072,0,0.139,0.014,0.199,0.024
	c0.394,0.118,0.293,0.983,0.293,0.991l-0.01,0.059c0,0.007,0,0.066,0,0.066v0.012v0.014c0.032,0.976-1.132,6.482-1.865,9.726
	l-0.003,0.015v0.01c-0.321,1.634-0.674,2.219-0.68,2.219c0.063-0.021,0.28-0.088,0.522,0.101l-0.224-0.17H115.393z"/>
<path fill="#0067B1" d="M115.421,44.299c0,0-1.147,5.311,1.318,5.885l16.097,0.019l0.141,0.024l2.006-0.018l4.81,0.006v-0.057
	l9.625-0.094c0,0,3.985,0.258,5.765-7.013l1.723-10.243c0,0,0.573-2.148-0.947-2.213l-10.749,0.039c0,0-1.205,0.447-0.691-2.021
	l1.342-8.725c0,0,0.696-1.702,1.584-1.767l10.369,0.05c0,0,0.699,0.123,0.856-1.837c0,0,0.378-1.386-0.44-1.423l-16.568-0.02
	c0,0-3.162,0.34-4.657,5.46c0,0-1.522,6.068-2.007,11.128c0,0-0.318,1.99,0.186,2.436c0,0,0.315,0.129,0.756,0.129l10.693-0.115
	c0,0,1.042-0.214,0.724,1.74l-1.406,8.851c0,0-0.32,2.284-2.124,2.31l-11.033,0.11v0.011l-7.271,0.063c0,0-1.467,0.095-1.039-3.175
	l5.54-25.746l3.18,0.05c0,0,1.102,0.365,1.296-1.625c0,0,0.178-1.078,0.105-1.585c0,0,0.047-0.121-0.649-0.121l-3.132-0.045
	l1.734-8.561c0,0,0.569-2.281-1.648-1.463l-3.194,0.822l-3.366,0.941c0,0-0.712-0.428-1.479,3.27L115.421,44.299z"/>
<path fill="#FFFFFF" d="M114.613,44.124c-0.136,0.627-1.231,6.133,1.943,6.867l0.088,0.018h0.096l16.097,0.023l-0.146-0.008
	l0.138,0.023l0.075,0.012h0.079l2.01-0.018c-0.013,0,4.798,0.006,4.798,0.006h0.831v-0.832v-0.057l-0.818,0.832l9.622-0.096h-0.061
	c0.189,0.009,4.701,0.21,6.628-7.646l0.006-0.029L156,43.192l1.721-10.243l-0.012,0.075c0.064-0.265,0.387-1.625-0.284-2.535
	c-0.228-0.313-0.662-0.689-1.428-0.725h-0.02h-0.021l-10.751,0.05h-0.148l-0.134,0.052c0.206-0.08,0.333,0.111,0.339,0.115
	c-0.006-0.004-0.126-0.268,0.069-1.19l0.003-0.024l0.003-0.02l1.344-8.729l-0.058,0.188c0.238-0.574,0.68-1.198,0.888-1.255
	c0,0-0.007,0-0.012,0h-0.061L157.81,19l-0.149-0.012c0.113,0.019,0.517,0.063,0.933-0.252c0.513-0.396,0.806-1.156,0.903-2.33
	l-0.027,0.15c0.081-0.289,0.299-1.279-0.184-1.938c-0.239-0.331-0.604-0.516-1.026-0.539h-0.013h-0.016l-16.571-0.02h-0.044h-0.044
	c-0.151,0.02-3.736,0.474-5.367,6.059v0.016l-0.01,0.016c-0.06,0.248-1.544,6.188-2.027,11.254l0.005-0.057
	c-0.173,1.119-0.242,2.576,0.465,3.192l0.103,0.091l0.133,0.05c0.075,0.036,0.491,0.188,1.064,0.188
	c0.01,0,10.699-0.107,10.699-0.107h0.079l0.082-0.016c-0.186,0.035-0.255-0.071-0.261-0.086c0,0,0.105,0.202-0.004,0.877
	c0,0.006-1.402,8.854-1.402,8.854c-0.015,0.079-0.251,1.59-1.319,1.606c0.007,0-11.026,0.116-11.026,0.116h-0.822v0.826l0.822-0.815
	l-7.274,0.064h-0.022h-0.018c0.06-0.006,0.082,0,0.082,0c-0.104-0.025-0.472-0.528-0.248-2.243l-0.011,0.063l5.537-25.746
	l-0.821,0.658l3.174,0.049l-0.249-0.039c0.12,0.039,0.734,0.213,1.362-0.201c0.578-0.375,0.926-1.09,1.026-2.133l-0.01,0.05
	c0.037-0.197,0.196-1.226,0.106-1.829l-0.05,0.425c0.104-0.269,0.073-0.558-0.084-0.798c-0.29-0.428-0.816-0.465-1.333-0.465
	c0.005,0-3.124-0.035-3.124-0.035l0.803,0.992l1.732-8.566l-0.006,0.035c0.061-0.252,0.333-1.522-0.482-2.26
	c-0.529-0.479-1.289-0.535-2.256-0.18l0.082-0.025l-3.197,0.816c-0.018,0.009-3.382,0.951-3.382,0.951l0.651,0.088
	c-0.273-0.164-0.623-0.177-0.945-0.039c-0.528,0.234-1.155,0.873-1.773,3.85C122.055,9.608,114.61,44.124,114.613,44.124z
	 M123.684,9.95c0.407-1.992,0.809-2.666,0.813-2.666c-0.063,0.021-0.299,0.104-0.577-0.063l0.304,0.182l0.347-0.098l3.366-0.942
	c-0.016,0.009,3.175-0.812,3.175-0.812l0.044-0.01l0.041-0.015c0.451-0.165,0.608-0.12,0.608-0.12
	c-0.015-0.006-0.048-0.031-0.054-0.045c0.051,0.086,0.051,0.417-0.003,0.646l-0.003,0.016l-0.007,0.019l-1.729,8.563l-0.202,0.988
	l1.005,0.009l3.125,0.035c0.258,0.006,0.34,0.021,0.343,0.021c-0.069-0.016-0.28-0.107-0.416-0.356l-0.034-0.677l-0.078,0.203
	l0.027,0.217c0.035,0.264-0.037,0.953-0.104,1.338l-0.003,0.029l-0.003,0.023c-0.071,0.758-0.276,0.904-0.281,0.904
	c0.005-0.002,0.011,0,0.022,0c0.009,0.005,0.026,0.005,0.049,0.017l-0.12-0.04h-0.13l-3.177-0.061l-0.682-0.007l-0.142,0.667
	l-5.541,25.75l-0.006,0.028l-0.003,0.038c-0.227,1.695-0.02,2.854,0.628,3.547c0.538,0.58,1.165,0.574,1.281,0.566h-0.041
	l7.27-0.063l0.823-0.006v-0.825l-0.823,0.816l11.04-0.105c1.993-0.029,2.788-1.996,2.933-3.022c0,0.017,1.401-8.839,1.401-8.839
	c0.18-1.084,0.025-1.844-0.467-2.318c-0.396-0.377-0.906-0.434-1.246-0.365l0.16-0.018l-10.688,0.113
	c-0.255,0-0.447-0.073-0.45-0.073l0.245,0.151c0.054,0.042,0.072,0.082,0.072,0.082c-0.104-0.211-0.094-1.071,0.014-1.761
	l0.01-0.028v-0.027c0.473-4.94,1.972-10.943,1.984-11l-0.008,0.027c1.305-4.461,3.925-4.868,3.95-4.868l-0.088,0.009l16.568,0.02
	h-0.03c-0.121-0.004-0.256-0.114-0.281-0.201c0.031,0.1,0,0.401-0.052,0.572l-0.018,0.076l-0.006,0.076
	c-0.077,0.938-0.274,1.166-0.274,1.166s0.122-0.127,0.396-0.083l-0.072-0.011h-0.076l-10.372-0.046h-0.028h-0.032
	c-1.3,0.095-2.084,1.769-2.295,2.282l-0.034,0.092l-0.018,0.096l-1.341,8.729l0.009-0.041c-0.179,0.861-0.33,2.078,0.419,2.727
	c0.447,0.385,1.018,0.373,1.373,0.243l-0.282,0.053l10.753-0.05h-0.041c0.085,0.002,0.144,0.018,0.161,0.043
	c0.129,0.184,0.115,0.74,0.015,1.135l-0.009,0.031l-0.006,0.041l-1.72,10.24l0.01-0.058c-1.569,6.411-4.781,6.382-4.918,6.376
	h-0.032c0.014,0-0.014,0-0.014,0l-9.627,0.1l-0.825,0.008v0.818v0.057l0.832-0.831l-4.81-0.006c-0.01,0-2.017,0.019-2.017,0.019
	l0.158,0.014l-0.143-0.026l-0.071-0.01h-0.07l-16.099-0.024l0.187,0.018c-1.244-0.283-0.999-3.479-0.695-4.896
	C116.233,44.471,123.684,9.956,123.684,9.95z"/>
<path fill="#0067B1" d="M175.888,42.303c0,0,0.243-5.068,0.602-6.351l-12.252-0.098c0,0-0.334,11.79,4.941,13.667
	c0,0,0.538,0.285,2.502,0.354l18.967-0.033l0.857-0.008c0,0,0.412,0.085,0.57-0.424c0,0,0.393-1.262,0.364-2.97
	c0,0-0.091-0.534-0.768-0.601c-0.687-0.07-0.034,0-0.034,0l-2.07,0.006l-11.414,0.035C178.154,45.881,175.785,45.931,175.888,42.303
	z"/>
<path fill="#FFFFFF" d="M176.716,42.344L176.716,42.344c0.069-1.38,0.304-5.193,0.574-6.168l0.289-1.045l-1.087-0.009l-12.249-0.095
	l-0.815-0.006l-0.02,0.808c-0.016,0.508-0.286,12.426,5.497,14.478l-0.113-0.051c0.167,0.085,0.862,0.381,2.86,0.443h0.012h0.017
	l18.967-0.027c0.003,0,0.857-0.006,0.857-0.006l-0.161-0.017c0.568,0.116,1.272-0.192,1.518-0.989
	c0.021-0.055,0.442-1.41,0.41-3.231v-0.064l-0.013-0.067c-0.098-0.561-0.613-1.198-1.515-1.285c-0.306-0.029-1.13-0.104-1.213,0.718
	c-0.05,0.548,0.289,0.863,1.023,0.933l0.079-1.654l-2.069,0.006l-11.418,0.043c-0.02-0.008-0.45-0.016-0.825-0.407
	C176.896,44.205,176.69,43.403,176.716,42.344z M178.157,46.713l11.418-0.039l2.063-0.002l0.085-1.66l-0.266-0.025l0.726,0.903
	l-0.886,0.747l0.291,0.025c0.058,0.01,0.074,0.018,0.074,0.018c-0.017-0.008-0.024-0.031-0.024-0.043
	c-0.007-0.013-0.007-0.031-0.01-0.051l-0.017-0.131c0.026,1.535-0.326,2.695-0.33,2.711c0,0.004,0,0.011,0,0.011
	c0-0.007,0.101-0.209,0.381-0.153l-0.078-0.016h-0.083l-0.856,0.004l-18.964,0.031h0.021c-1.632-0.057-2.16-0.271-2.167-0.271
	c0,0,0.012,0.005,0.035,0.019l-0.054-0.031l-0.057-0.02c-3.866-1.373-4.482-9.748-4.397-12.863l-0.834,0.807l12.251,0.101
	l-0.79-1.056c-0.371,1.332-0.604,6.007-0.631,6.539c-0.046,1.59,0.329,2.789,1.109,3.572
	C177.032,46.713,178.059,46.713,178.157,46.713z"/>
<path fill="#0067B1" d="M195.396,15.038c0,0-0.259-0.043-0.495-0.068l-20.111-0.17c0,0-2.443-0.08-4.863,1.505
	c0,0-3.704,2.652-5.421,7.728l12.051,0.016c0,0,0.689-2.798,2.161-4.196c0,0,0.456-0.995,4.08-0.895l10.856,0.124l1.097,0.016
	c0,0,0.736,0.188,0.903-2.109c0,0,0.172-1.13-0.079-1.703C195.527,15.183,195.474,15.1,195.396,15.038z"/>
<path fill="#FFFFFF" d="M195.547,14.226c-0.014-0.006-0.295-0.056-0.568-0.089h-0.035h-0.04l-20.105-0.17
	c-0.098,0-2.718-0.065-5.325,1.641l-0.017,0.011l-0.019,0.012c-0.157,0.114-3.938,2.866-5.717,8.134l-0.371,1.096h1.155l12.051,0.02
	h0.649l0.158-0.631c0.006-0.027,0.651-2.583,1.927-3.791l0.118-0.115l0.064-0.145c-0.038,0.08-0.066,0.113-0.066,0.113
	c0.002-0.006,0.599-0.601,3.37-0.522c0.01,0,10.87,0.123,10.87,0.123l1.093,0.017l-0.198-0.033c0.309,0.082,0.668,0,0.958-0.207
	c0.567-0.404,0.882-1.242,0.982-2.645l-0.005,0.068c0.033-0.23,0.188-1.398-0.137-2.156c-0.113-0.244-0.256-0.438-0.438-0.572
	l-0.158-0.123L195.547,14.226z M194.815,15.619c0.089,0.202,0.086,0.821,0.02,1.237l-0.007,0.035v0.033
	c-0.081,1.082-0.292,1.416-0.295,1.416c0.05-0.035,0.192-0.115,0.424-0.051l-0.094-0.025h-0.102l-1.099-0.01l-10.854-0.13
	c-3.758-0.101-4.639,0.933-4.847,1.386l0.183-0.258c-1.626,1.544-2.362,4.473-2.396,4.596l0.809-0.633l-12.051-0.014l0.787,1.096
	c1.604-4.742,5.084-7.293,5.119-7.318l0.015-0.013l0.017-0.011l-0.066,0.043c2.182-1.422,4.366-1.374,4.388-1.374
	c0.017,0,20.131,0.171,20.131,0.171h-0.075c0.201,0.019,0.424,0.062,0.424,0.062l-0.349-0.155c-0.061-0.046-0.082-0.094-0.082-0.094
	L194.815,15.619z"/>
<path fill="#0067B1" d="M215.743,15.143l-6.117,0.034l-4.838,0.044c0,0-3.89-0.479-5.455,1.41c0,0-2.092,2.13-2.76,6.307
	l-3.159,19.252c0,0-0.67,4.979,1.223,6.785c0,0,0.616,0.851,3.37,0.809l13.799,0.072c0,0,3.084,0.334,4.892-3.41
	c0,0,1.715-3.557,2.193-8.577l2.056-12.665c0,0,1.34-6.498-0.416-8.83C220.53,16.374,219.734,14.577,215.743,15.143z
	 M212.559,20.776l-3.446,21.77c-0.763,3.934-1.806,3.984-1.806,3.984l-4.034-0.01c-1.472-0.051-0.9-2.321-0.9-2.321l3.786-23.667
	c0.377-1.752,1.423-2.086,1.423-2.086l4.127-0.04C213.082,18.743,212.559,20.776,212.559,20.776z"/>
<path fill="#FFFFFF" d="M215.74,14.311l-6.117,0.035c-0.003,0-4.841,0.043-4.841,0.043l0.107,0.008
	c-0.177-0.02-4.359-0.512-6.199,1.706l0.048-0.05c-0.096,0.096-2.281,2.367-2.987,6.752c0.004,0-3.159,19.25-3.159,19.25v0.016
	v0.013c-0.075,0.547-0.667,5.454,1.472,7.492l-0.098-0.116c0.201,0.283,1.096,1.197,4.052,1.156c-0.021,0,13.785,0.066,13.785,0.066
	l-0.092-0.008c0.152,0.021,3.695,0.354,5.729-3.867c0.077-0.15,1.787-3.748,2.275-8.863l-0.006,0.05l2.056-12.658l-0.003,0.034
	c0.143-0.699,1.354-6.935-0.564-9.487l0.095,0.158c-0.105-0.245-1.187-2.353-5.666-1.72L215.74,14.311z M219.87,16.877
	c1.114,1.479,0.752,5.786,0.264,8.158l-0.002,0.017l-0.004,0.019l-2.06,12.658l-0.003,0.029l-0.003,0.025
	c-0.46,4.803-2.103,8.268-2.114,8.3l0.025-0.046l-0.016,0.027l-0.01,0.019c-1.534,3.185-4.028,2.946-4.054,2.944l-0.04-0.004h-0.045
	l-13.799-0.072c-2.158,0.035-2.734-0.51-2.743-0.516c0,0,0.018,0.016,0.044,0.05l-0.044-0.06l-0.058-0.051
	c-1.299-1.237-1.133-4.895-0.977-6.072l-0.003,0.025l3.162-19.254c0.614-3.838,2.515-5.845,2.536-5.863l0.021-0.023
	c0.003,0,0.025-0.023,0.025-0.023c1.039-1.262,3.754-1.238,4.713-1.117l-0.061-0.014l0.082,0.018h0.088l4.835-0.042
	c-0.003,0,6.118-0.038,6.118-0.038h0.055l0.054-0.012c3.207-0.451,3.926,0.773,3.931,0.791c0,0-0.005-0.018-0.016-0.034l0.037,0.09
	L219.87,16.877z"/>
<path fill="#FFFFFF" d="M211.737,20.653l-3.446,21.757l0.006-0.019c-0.563,2.898-1.237,3.354-1.243,3.357
	c0,0,0.068-0.043,0.217-0.05h0.037l-4.031-0.009h0.025c-0.075,0-0.099-0.018-0.099-0.018l0,0c-0.122-0.094-0.156-0.742-0.024-1.271
	l0.012-0.037l0.005-0.038l3.782-23.661l-0.009,0.045c0.264-1.207,0.868-1.473,0.894-1.482c0,0-0.006,0.008-0.028,0.01l-0.246,0.041
	l4.132-0.041l-0.203-0.021c0.109,0.025,0.157,0.068,0.192,0.139c0.169,0.271,0.128,0.895,0.046,1.223l-0.01,0.037L211.737,20.653z
	 M211.699,17.577l-4.126,0.038h-0.123l-0.114,0.038c-0.16,0.051-1.521,0.545-1.99,2.702l-0.003,0.022l-0.01,0.021l-3.775,23.66
	l0.012-0.066c-0.068,0.283-0.393,1.752,0.302,2.67c0.228,0.303,0.647,0.665,1.374,0.689h0.013h0.016l4.034,0.011h0.014l0.018-0.007
	c0.634-0.028,1.818-0.667,2.589-4.652l0.005-0.01l0.002-0.016l3.447-21.77l-0.021,0.076c0.038-0.151,0.366-1.504-0.226-2.488
	c-0.271-0.457-0.699-0.765-1.232-0.895l-0.098-0.025H211.699z"/>
<path fill="#0067B1" d="M4.773,50.35l1.484,0.066l13.601-0.166c0,0,10.75-0.18,12.356-16.873l-17.138-0.02
	c0,0,4.41,10.754,4.787,11.764c0,0,0.441,0.893-0.16,0.982L5.727,46.307c0,0-0.664-0.096-0.822,0.443c0,0-0.632,1.771-0.635,2.842
	C4.27,49.592,4.208,50.323,4.773,50.35z"/>
<path fill="#0067B1" d="M22.963,10.918c0,0-0.759-1.367,0.038-1.935l14.836,0.059c0,0,0.651,0.057,0.828-0.322
	c0,0,0.525-1.544,0.654-2.979c0,0,0.048-0.543-0.06-0.744c0,0-0.082-0.05-0.681-0.082l-15.308,0.07c0,0-5.594,0.473-8.545,6.677
	c0,0-2.555,6.024-2.923,9.862l17.012-0.041L22.963,10.918z"/>
<path fill="#0067B1" d="M92.026,21.452c0,0,0.46-2.457-0.271-4.398c-0.293-0.785-0.782-1.485-1.572-1.91
	c0,0-0.712-0.338-3.085-0.242L75.53,14.833c0,0-3.465-0.481-5.222,1.843c0,0-2.472,3.554-2.948,6.92c0,0-3.824,17.498-4.017,19.539
	c0,0-0.332,2.514-0.051,3.654l-8.444,0.03c0,0-1.325,0.14-0.566-1.847l9.899-22.948c0,0,1.902-3.838,1.008-6.64
	c0,0-0.38-0.801-3.272-0.617l-20.249,0.016c0,0-1.012-0.574-1.368,2.274L31.638,59.5c0,0-0.762,1.89,1.138,1.99l6.354-0.084
	c0,0,0.851,0.383,1.327-1.421l8.217-40.683c0,0-0.091-1.285,1.85-1.234l4.7,0.006c0,0,1.045,0.195,0.995,0.955
	c0,0,0.094,1.42-0.958,3.27L44.13,48.178c0,0-0.24,0.616-0.287,1.14c0,0-0.284,0.71,0.708,0.716l35.908,0.094
	c0,0,2.376,0.568,4.606-2.129c0.946-1.145,1.869-2.877,2.563-5.494C87.628,42.504,91.878,23.304,92.026,21.452z M83.391,20.633
	l-5.104,23.661c-0.48,2.608-1.9,2.558-1.9,2.558h-2.801c-1.758,0.043-1.706-0.814-1.706-0.814c-0.285-0.762,0.239-2.563,0.239-2.563
	l4.684-22c0.712-3.362,2.044-3.362,2.044-3.362l3.604,0.05C83.918,18.214,83.391,20.633,83.391,20.633z"/>
<path fill="#0067B1" d="M116.872,26.793c0,0,1.937-8.479,1.887-9.928c0,0,0.255-1.588-0.883-1.916
	c-0.126-0.03-0.262-0.049-0.416-0.057l-4.579-0.049c0,0-1.564-0.051-2.615,1.529c0,0-1.637,2.66-2.469,4.531l-6.734,14.318
	c0,0-0.262,0.613-0.403,0.472c0,0-0.094,0.077,0.073-0.681l3.871-17.815c0,0,0.334-2.084-0.627-2.273l-6.343-0.056
	c0,0-1.426-0.531-1.9,1.75l-6.926,32.104c0,0-0.567,1.512,0.661,1.512l5.456-0.034c0,0,1.042,0.663,2.563-3.129l9.519-20.713
	c0,0,0.524-0.949,0.832-0.712c0,0,0.4,0.432-0.195,1.994c0,0-0.643,1.849,0.089,1.969l6.979,0.006l0.688,0.007
	C115.398,29.623,116.204,30.237,116.872,26.793z"/>
<path fill="#0067B1" d="M115.421,44.299c0,0-1.147,5.311,1.32,5.885l16.099,0.019l0.137,0.024l2.006-0.018l4.81,0.006v-0.057
	l9.628-0.094c0,0,3.984,0.258,5.769-7.013l1.716-10.243c0,0,0.576-2.148-0.944-2.213l-10.752,0.049c0,0-1.198,0.438-0.688-2.031
	l1.342-8.725c0,0,0.696-1.702,1.581-1.767l10.372,0.05c0,0,0.696,0.123,0.854-1.837c0,0,0.388-1.386-0.438-1.423l-16.571-0.02
	c0,0-3.162,0.34-4.655,5.46c0,0-1.524,6.068-2.006,11.128c0,0-0.321,1.99,0.186,2.436c0,0,0.315,0.129,0.753,0.129l10.693-0.115
	c0,0,1.046-0.214,0.724,1.74l-1.406,8.851c0,0-0.32,2.284-2.118,2.31l-11.036,0.11v0.011l-7.273,0.063c0,0-1.467,0.095-1.039-3.175
	l5.54-25.746l3.18,0.05c0,0,1.102,0.365,1.296-1.625c0,0,0.178-1.078,0.108-1.585c0,0,0.046-0.121-0.652-0.121l-3.132-0.045
	l1.734-8.561c0,0,0.569-2.281-1.646-1.463l-3.193,0.822l-3.37,0.941c0,0-0.712-0.428-1.479,3.27L115.421,44.299z"/>
<path fill="#0067B1" d="M175.888,42.303c0,0,0.246-5.068,0.602-6.351l-12.252-0.098c0,0-0.331,11.79,4.944,13.667
	c0,0,0.535,0.285,2.502,0.354l18.964-0.033l0.857-0.008c0,0,0.412,0.085,0.57-0.424c0,0,0.396-1.262,0.368-2.97
	c0,0-0.09-0.534-0.771-0.601c-0.683-0.07-0.034,0-0.034,0l-2.07,0.006l-11.414,0.035C178.154,45.881,175.788,45.931,175.888,42.303z
	"/>
<path fill="#0067B1" d="M195.399,15.038c0,0-0.262-0.043-0.498-0.068l-20.108-0.17c0,0-2.444-0.08-4.866,1.505
	c0,0-3.701,2.652-5.418,7.728l12.051,0.016c0,0,0.687-2.798,2.158-4.196c0,0,0.46-0.995,4.085-0.895l10.854,0.124l1.096,0.016
	c0,0,0.736,0.188,0.901-2.109c0,0,0.172-1.13-0.077-1.703C195.531,15.183,195.474,15.1,195.399,15.038z"/>
<path fill="#0067B1" d="M215.747,15.143l-6.117,0.034l-4.835,0.041c0,0-3.893-0.476-5.462,1.413c0,0-2.092,2.13-2.756,6.307
	l-3.163,19.252c0,0-0.67,4.979,1.226,6.785c0,0,0.617,0.851,3.367,0.809l13.799,0.072c0,0,3.084,0.334,4.895-3.41
	c0,0,1.714-3.557,2.19-8.577l2.056-12.665c0,0,1.342-6.498-0.407-8.83C220.539,16.374,219.734,14.577,215.747,15.143z
	 M212.563,20.776l-3.45,21.77c-0.763,3.934-1.806,3.984-1.806,3.984l-4.031-0.01c-1.472-0.051-0.9-2.321-0.9-2.321l3.783-23.667
	c0.38-1.752,1.423-2.086,1.423-2.086l4.127-0.04C213.084,18.743,212.563,20.776,212.563,20.776z"/>
<path fill="#FFFFFF" d="M105.936,31.594l12.879,0.119c0,0,0.828,0.189,0.93-0.951l0.333-2.224c0,0,0.142-0.93-0.854-0.955
	l-12.782-0.019c0,0-0.545-0.025-0.692,1.781C105.75,29.346,105.389,31.405,105.936,31.594z"/>
<path d="M105.932,32.151l12.876,0.117l-0.116-0.017c0.053,0.011,0.558,0.117,1.004-0.216c0.347-0.25,0.546-0.664,0.596-1.223
	l-0.003,0.03l0.334-2.229c0.009-0.063,0.085-0.648-0.296-1.109c-0.172-0.207-0.504-0.459-1.09-0.479
	c-0.01,0-12.795-0.012-12.795-0.012h0.025c-0.328-0.02-1.1,0.18-1.266,2.286l0.003-0.05c-0.29,1.676-0.107,2.644,0.548,2.872
	l0.089,0.028H105.932z M106.307,29.389c0.085-1.096,0.317-1.316,0.317-1.316s-0.066,0.051-0.207,0.044l0.013,0.007h0.012
	l12.782,0.012c0.116,0.006,0.214,0.031,0.255,0.079c0.057,0.068,0.054,0.224,0.048,0.237l-0.331,2.229l-0.006,0.016l-0.004,0.022
	c-0.028,0.315-0.112,0.409-0.141,0.425c-0.043,0.027-0.108,0.027-0.108,0.027l-0.062-0.018h-0.058l-12.873-0.107l0.173,0.031
	c0.082,0.025,0.126,0.076,0.14,0.102c-0.108-0.195-0.086-1.021,0.041-1.739l0.002-0.024L106.307,29.389z"/>
<path fill="#FFFFFF" d="M125.877,27.114l0.145-1.09c0,0,0.194-0.922-0.543-1.069c-0.068-0.013-0.135-0.026-0.217-0.026
	l-24.332,0.253c0,0-0.476,0-0.712,0.517l-0.526,2.897c0,0-0.33,0.618,1.232,0.618l23.709-0.106h0.198
	C124.832,29.107,125.732,29.011,125.877,27.114z"/>
<path d="M126.428,27.184l0.141-1.09l-0.009,0.049c0.024-0.119,0.135-0.723-0.188-1.215c-0.178-0.268-0.448-0.45-0.785-0.516
	c-0.11-0.025-0.217-0.035-0.324-0.035c-0.007,0-24.338,0.252-24.338,0.252c-0.304-0.004-0.904,0.174-1.214,0.841l-0.028,0.064
	l-0.008,0.068l-0.524,2.892l0.054-0.164c-0.101,0.193-0.16,0.522,0.025,0.826c0.321,0.541,1.121,0.607,1.695,0.607
	c0.003,0,23.709-0.104,23.709-0.104h0.198h0.027l0.029-0.005c0.135-0.014,1.366-0.209,1.54-2.496V27.184z M124.832,28.551h-0.202
	L100.92,28.66c-0.62,0-0.777-0.11-0.777-0.11s0.136,0.125,0.035,0.311l0.043-0.078l0.013-0.086l0.53-2.896l-0.045,0.133
	c0.078-0.172,0.186-0.191,0.233-0.195c0,0-0.01,0-0.022,0c0.003,0,24.338-0.25,24.338-0.25c0.028,0,0.063,0.004,0.105,0.01
	c0.055,0.016,0.065,0.03,0.074,0.038c0.057,0.087,0.04,0.308,0.031,0.37l-0.006,0.023l-0.003,0.024l-0.146,1.089v0.016v0.017
	c-0.104,1.332-0.589,1.483-0.591,1.483c0,0,0.012,0,0.04-0.006H124.832z"/>
<path d="M51.006,64.985l-3.22,0.01l1.2-7.582l3.215-0.007L51.006,64.985z"/>
<path d="M73.977,64.928l-3.215,0.006l0.598-3.781l-4.252,3.791l-2.573,0.006l-3.055-3.775l-0.6,3.781l-3.22,0.006l1.201-7.57
	l3.221-0.006l4.087,5.127l5.799-5.149l3.209-0.007L73.977,64.928z"/>
<path d="M94.233,60.327c-0.05,0.299-0.302,0.547-0.755,0.762c-0.456,0.215-0.978,0.322-1.565,0.322L84.4,61.428l-0.552,3.475
	l-3.218,0.01l1.202-7.579l10.731-0.019c0.585,0,1.074,0.098,1.466,0.316c0.386,0.207,0.561,0.459,0.512,0.755L94.233,60.327z
	 M91.081,59.911l0.173-1.09l-6.446,0.013l-0.171,1.096L91.081,59.911z"/>
<path d="M113.047,64.836l-3.22,0.007l0.553-3.478l-6.446,0.018l-0.55,3.473l-3.22,0.006l1.201-7.572l10.734-0.024
	c0.589,0,1.073,0.105,1.461,0.313c0.395,0.215,0.561,0.469,0.512,0.768l-0.188,1.187c-0.048,0.293-0.296,0.548-0.753,0.763
	c-0.456,0.215-0.977,0.324-1.565,0.324c0.589,0,1.073,0.107,1.461,0.314c0.392,0.215,0.562,0.466,0.518,0.758L113.047,64.836z
	 M110.619,59.867l0.173-1.096l-6.443,0.017l-0.178,1.092L110.619,59.867z"/>
<path d="M122.916,64.805l-3.217,0.016l1.201-7.57l3.215-0.018L122.916,64.805z"/>
<path d="M142.458,64.76l-3.223,0.01l-5.721-4.524l-0.721,4.54l-3.22,0.01l1.201-7.574l3.202-0.007l5.738,4.536l0.726-4.553
	l3.216-0.008L142.458,64.76z"/>
<path d="M162.953,58.65l-4.615,0.007l-0.96,6.07l-3.217,0.01l0.965-6.068l-5.052,0.007l0.235-1.498l12.883-0.038L162.953,58.65z"/>
<path d="M171.863,64.692l-3.222,0.01l1.206-7.576l3.216-0.002L171.863,64.692z"/>
<path d="M191.399,64.648l-3.217,0.006l-5.727-4.522l-0.722,4.539l-3.218,0.009l1.205-7.572l3.201-0.011l5.735,4.537l0.724-4.552
	l3.217-0.005L191.399,64.648z"/>
<path d="M210.93,64.597l-10.731,0.031c-0.587,0-1.074-0.105-1.461-0.317c-0.389-0.209-0.558-0.467-0.514-0.76l0.856-5.414
	c0.051-0.293,0.303-0.545,0.757-0.76c0.456-0.213,0.978-0.32,1.565-0.32l10.734-0.031l-0.237,1.506l-9.663,0.021l-0.729,4.57
	l6.448-0.018l0.309-1.973l-4.293,0.016l0.235-1.507l7.516-0.021L210.93,64.597z"/>
</svg>
