<?xml version="1.0" encoding="utf-8"?>
<!-- Generator: Adobe Illustrator 12.0.0, SVG Export Plug-In . SVG Version: 6.00 Build 51448)  -->
<!DOCTYPE svg PUBLIC "-//W3C//DTD SVG 1.1//EN" "http://www.w3.org/Graphics/SVG/1.1/DTD/svg11.dtd" [
	<!ENTITY ns_svg "http://www.w3.org/2000/svg">
	<!ENTITY ns_xlink "http://www.w3.org/1999/xlink">
]>
<svg  version="1.1" id="Layer_1" xmlns="&ns_svg;" xmlns:xlink="&ns_xlink;" width="17.457" height="20" viewBox="0 0 17.457 20"
	 overflow="visible" enable-background="new 0 0 17.457 20" xml:space="preserve">
<path fill="#0067B1" d="M7.208,0c0.03,0,0.061,0,0.091,0c2.902,1.398,4.505,4.103,5.558,7.354c0.754-0.697,0.898-2.461,0.361-3.497
	c1.975,1.9,3.951,4.273,4.212,7.711c0.336,4.423-2.581,6.758-5.468,8.432c1.9-3.46,0.411-8.051-1.524-10.316
	C9.99,9.162,9.411,8.43,8.915,8.519c0.191,2.066-0.607,4.343-1.616,5.202c0.17-0.966,0.02-2.257-0.63-2.691
	c-0.213,2.334-2.498,3.844-2.509,6.277C4.154,18.309,4.621,19.245,4.788,20c-2.093-1.385-4.448-2.581-4.754-5.562
	c-0.352-3.445,2.169-5.578,2.601-8.52c0.378,0.906,0.691,1.877,0.719,3.137C5.161,6.97,7.448,4.138,7.208,0z"/>
</svg>
