<?xml version="1.0" encoding="utf-8"?>
<!-- Generator: Adobe Illustrator 12.0.0, SVG Export Plug-In . SVG Version: 6.00 Build 51448)  -->
<!DOCTYPE svg PUBLIC "-//W3C//DTD SVG 1.1//EN" "http://www.w3.org/Graphics/SVG/1.1/DTD/svg11.dtd" [
	<!ENTITY ns_svg "http://www.w3.org/2000/svg">
	<!ENTITY ns_xlink "http://www.w3.org/1999/xlink">
]>
<svg  version="1.1" id="Layer_1" xmlns="&ns_svg;" xmlns:xlink="&ns_xlink;" width="11.785" height="15.132"
	 viewBox="0 0 11.785 15.132" overflow="visible" enable-background="new 0 0 11.785 15.132" xml:space="preserve">
<path fill="#0067B1" d="M5.81,1.162c0.019,0,0.038,0,0.057,0c1.822,0.877,2.828,2.576,3.489,4.616
	C9.83,5.34,9.919,4.233,9.583,3.583c1.24,1.193,2.48,2.683,2.645,4.841c0.211,2.776-1.62,4.242-3.433,5.293
	c1.192-2.172,0.258-5.054-0.957-6.476C7.556,6.913,7.193,6.454,6.881,6.509C7.001,7.807,6.5,9.236,5.867,9.775
	c0.107-0.606,0.012-1.417-0.396-1.689c-0.134,1.465-1.568,2.413-1.575,3.94c-0.003,0.629,0.289,1.217,0.394,1.69
	c-1.314-0.869-2.792-1.62-2.984-3.491C1.085,8.063,2.667,6.724,2.939,4.877C3.176,5.446,3.373,6.056,3.39,6.846
	C4.525,5.537,5.96,3.759,5.81,1.162z"/>
</svg>
